<svg xmlns="http://www.w3.org/2000/svg" xmlns:xlink="http://www.w3.org/1999/xlink" viewBox="0 0 754.22 861.81"><defs><style>.cls-1{isolation:isolate;}.cls-2{fill:url(#무제_그라디언트_233);}.cls-11,.cls-13,.cls-3,.cls-8{fill:#fff;}.cls-3{opacity:0.5;}.cls-13,.cls-15,.cls-3,.cls-4,.cls-8,.cls-9{mix-blend-mode:overlay;}.cls-4{stroke-miterlimit:10;opacity:0.86;fill:url(#무제_그라디언트_277);stroke:url(#무제_그라디언트_273);}.cls-5{opacity:0.93;}.cls-6{fill:url(#무제_그라디언트_277-2);}.cls-7{fill:url(#무제_그라디언트_173);}.cls-8{opacity:0.58;}.cls-9{opacity:0.71;fill:url(#무제_그라디언트_270);}.cls-10{opacity:0.64;}.cls-12{fill:url(#무제_그라디언트_144);}.cls-13{opacity:0.52;}.cls-14{opacity:0.69;fill:url(#무제_그라디언트_263);}.cls-15{opacity:0.65;}</style><linearGradient id="무제_그라디언트_233" x1="473.39" y1="732.56" x2="223.32" y2="489.44" gradientUnits="userSpaceOnUse"><stop offset="0" stop-color="#d0ff3f"/><stop offset="0.12" stop-color="#a7f84a"/><stop offset="0.28" stop-color="#74f056"/><stop offset="0.44" stop-color="#4ae961"/><stop offset="0.59" stop-color="#2ae469"/><stop offset="0.74" stop-color="#13e06f"/><stop offset="0.88" stop-color="#05de73"/><stop offset="0.99" stop-color="#00dd74"/></linearGradient><radialGradient id="무제_그라디언트_277" cx="409.02" cy="674" r="416" gradientTransform="translate(-1.16 807.68) rotate(-36.59) scale(1 0.2)" gradientUnits="userSpaceOnUse"><stop offset="0" stop-color="#fff"/><stop offset="0.11" stop-color="#fff" stop-opacity="0.85"/><stop offset="0.27" stop-color="#fff" stop-opacity="0.66"/><stop offset="0.43" stop-color="#fff" stop-opacity="0.49"/><stop offset="0.59" stop-color="#fff" stop-opacity="0.36"/><stop offset="0.74" stop-color="#fff" stop-opacity="0.27"/><stop offset="0.88" stop-color="#fff" stop-opacity="0.22"/><stop offset="1" stop-color="#fff" stop-opacity="0.2"/></radialGradient><linearGradient id="무제_그라디언트_273" y1="638.34" x2="752.92" y2="638.34" gradientUnits="userSpaceOnUse"><stop offset="0" stop-color="#fff"/><stop offset="0.06" stop-color="#e3fbf0"/><stop offset="0.21" stop-color="#a7f3cf"/><stop offset="0.36" stop-color="#74edb3"/><stop offset="0.5" stop-color="#4be79d"/><stop offset="0.64" stop-color="#2ae38b"/><stop offset="0.77" stop-color="#13e07e"/><stop offset="0.89" stop-color="#05de77"/><stop offset="1" stop-color="#00dd74"/></linearGradient><radialGradient id="무제_그라디언트_277-2" cx="376.36" cy="3310.49" r="309.91" gradientTransform="translate(0 -36.64) scale(1 0.2)" xlink:href="#무제_그라디언트_277"/><linearGradient id="무제_그라디언트_173" x1="65.87" y1="432.76" x2="589.86" y2="560.76" gradientUnits="userSpaceOnUse"><stop offset="0" stop-color="#1300ae"/><stop offset="0.11" stop-color="#1305af"/><stop offset="0.24" stop-color="#1115b1"/><stop offset="0.39" stop-color="#0f2fb4"/><stop offset="0.55" stop-color="#0c53b8"/><stop offset="0.72" stop-color="#0881be"/><stop offset="0.89" stop-color="#03b9c5"/><stop offset="0.99" stop-color="#00ddc9"/></linearGradient><radialGradient id="무제_그라디언트_270" cx="373.64" cy="533.59" r="517.58" gradientTransform="translate(35.26 723) rotate(-44.77) scale(1 0.19)" gradientUnits="userSpaceOnUse"><stop offset="0" stop-color="#fff"/><stop offset="0.13" stop-color="#fff" stop-opacity="0.98"/><stop offset="0.3" stop-color="#fff" stop-opacity="0.92"/><stop offset="0.49" stop-color="#fff" stop-opacity="0.82"/><stop offset="0.69" stop-color="#fff" stop-opacity="0.68"/><stop offset="0.9" stop-color="#fff" stop-opacity="0.5"/><stop offset="1" stop-color="#fff" stop-opacity="0.4"/></radialGradient><linearGradient id="무제_그라디언트_144" x1="28.9" y1="758.48" x2="518.42" y2="258.98" gradientUnits="userSpaceOnUse"><stop offset="0" stop-color="#660094"/><stop offset="0.14" stop-color="#850083"/><stop offset="0.54" stop-color="#dc0052"/><stop offset="0.72" stop-color="#ff003f"/><stop offset="0.8" stop-color="#ff252e"/><stop offset="0.98" stop-color="#ff8304"/><stop offset="1" stop-color="#ff8c00"/></linearGradient><radialGradient id="무제_그라디언트_263" cx="338.19" cy="466.09" r="522.94" gradientTransform="translate(38.48 660.47) rotate(-51.75) scale(1 0.25)" gradientUnits="userSpaceOnUse"><stop offset="0" stop-color="#fff"/><stop offset="0.38" stop-color="#fff" stop-opacity="0.68"/><stop offset="0.81" stop-color="#fff" stop-opacity="0.34"/><stop offset="1" stop-color="#fff" stop-opacity="0.2"/></radialGradient></defs><title>wing_logo</title><g class="cls-1"><g id="레이어_2" data-name="레이어 2"><g id="레이어_2-2" data-name="레이어 2"><path class="cls-2" d="M332.24,751.77C103.11,779.17,7,854.12.51,860.47c0-.13,0-.25,0-.38C-6.22,694.66,157.36,549.81,402.84,520.72c237.35-28.13,342.11-99.59,349-104.45l.37-.27C759.35,581.68,578.16,722.37,332.24,751.77Z"/><path class="cls-3" d="M332.24,751.77C103.11,779.17,7,854.12.51,860.47c0-.13,0-.25,0-.38,0-8.46,18.14-26.43,23.15-32.82a491,491,0,0,1,39-43.91A508.18,508.18,0,0,1,188.44,691a470.28,470.28,0,0,1,162.16-49.48c72.78-8.51,142.08-24.33,206.78-59.62,53.3-29.08,101.89-66.77,144.86-109.57,17.27-17.2,36.17-35.48,49.61-56l.37-.27C759.35,581.68,578.16,722.37,332.24,751.77Z"/><path class="cls-4" d="M752.22,416l-.37.27c-13.44,20.54-32.35,38.83-49.61,56-43,42.8-91.56,80.49-144.86,109.57-64.7,35.3-134,51.11-206.78,59.62A470.28,470.28,0,0,0,188.44,691a508.18,508.18,0,0,0-125.8,92.39,491,491,0,0,0-39,43.91C18.64,833.66.5,851.63.5,860.09c0,.13,0,.25,0,.38,6.53-6.35,102.6-81.3,331.73-108.7C578.16,722.37,759.35,581.68,752.22,416ZM719.78,531.86c-19.35,36.06-48.21,69.44-85.76,99.21C557.76,691.51,450.38,732.61,331.65,746.8c-96.45,11.53-180.8,32.6-250.72,62.61-29.51,12.67-50.21,24.28-63.67,32.85,1.92-2.25,3.71-4.27,5-5.76,2.18-2.46,4.06-4.58,5.3-6.16A488,488,0,0,1,66.18,786.9a501.56,501.56,0,0,1,124.56-91.48,465.72,465.72,0,0,1,160.44-49c86.48-10.11,150.81-28.68,208.6-60.2,51.55-28.12,100.67-65.27,146-110.42l3.42-3.4c13.19-13.11,26.73-26.57,38.17-41.31C746.44,465.6,737.19,499.42,719.78,531.86Z"/><g class="cls-5"><path class="cls-6" d="M752.22,416l-.37.27h0c-10.14,15.83-22.92,29.76-36,43.18q-9.85,10.06-19.82,20c-3.34,3.3-6.74,6.54-10.12,9.79s-6.82,6.45-10.33,9.58A642.27,642.27,0,0,1,585.94,567c-4,2.46-8,5-12,7.34l-6.07,3.59-6.14,3.47q-12.32,6.88-25.08,13a460.76,460.76,0,0,1-52.38,21.06c-35.73,11.95-72.72,19.67-109.92,25-9.29,1.35-18.67,2.4-27.94,3.58s-18.5,2.62-27.69,4.26a470.88,470.88,0,0,0-54.37,13.46c-35.72,11-69.93,26.69-102.13,45.69A508.42,508.42,0,0,0,72.74,774.9a498.55,498.55,0,0,0-38.83,40.57q-4.56,5.35-9,10.83C22,830,18.78,833.39,15.68,836.9s-6.19,7-9,10.78a57.52,57.52,0,0,0-3.89,5.84A15.29,15.29,0,0,0,.5,860.09a15.36,15.36,0,0,1,2.16-6.64,57.74,57.74,0,0,1,3.78-5.94c2.74-3.82,5.74-7.44,8.79-11s6.25-7,9.07-10.72,5.81-7.37,8.8-11a500.08,500.08,0,0,1,38.29-41.31,509.47,509.47,0,0,1,89.2-68.71,461.67,461.67,0,0,1,49.9-26.35l6.44-2.89,6.5-2.75,3.25-1.37,3.28-1.3,6.57-2.6,6.62-2.45,3.31-1.22,3.34-1.15,6.68-2.3,6.73-2.15A474.6,474.6,0,0,1,318,644.51c9.26-1.67,18.55-3.24,27.9-4.38s18.59-2.3,27.87-3.66c37-5.21,73.83-12.77,109.34-24.52a457.19,457.19,0,0,0,52-20.73,530.36,530.36,0,0,0,49.21-26.85,642.37,642.37,0,0,0,90-67c3.55-3.06,7-6.26,10.45-9.39s6.87-6.37,10.25-9.61q10.13-9.73,20.12-19.65c6.65-6.61,13.18-13.33,19.4-20.34,3.1-3.51,6.13-7.08,9-10.75s5.67-7.46,8.3-11.35h0Z"/></g><path class="cls-7" d="M332.24,688.24C105.81,731.08,9.32,847.4.78,859.81c-.11.16-.2.29-.27.41-7-262,156.66-491.47,402.33-537.54S752.22,157,752.22,157v.14C759.29,419.21,578.12,641.74,332.24,688.24Z"/><path class="cls-8" d="M332.24,688.24C105.81,731.08,9.32,847.4.78,859.81,10.21,846.11,14.4,824.45,21,809c8.46-19.82,17.59-39.36,27.61-58.45,22.55-43,49.62-83.8,82.67-119.45,64.24-69.31,145.39-106.64,237.64-123.8C505.72,481.88,610,377.09,685.92,266.7q14.67-21.33,28.4-43.29l3.32-5.32c12.25-19.72,24.76-39.86,34.58-60.95C759.29,419.21,578.12,641.74,332.24,688.24Z"/><path class="cls-9" d="M752.22,157.14c-9.82,21.09-22.33,41.23-34.58,60.95l-3.32,5.32q-13.77,21.92-28.4,43.29c-75.9,110.39-180.19,215.18-317,240.63-92.26,17.16-173.4,54.49-237.64,123.8-33,35.65-60.12,76.48-82.67,119.45C38.57,769.67,29.44,789.21,21,809,14.4,824.45,10.21,846.11.78,859.81c8.54-12.41,105-128.73,331.46-171.57C578.12,641.74,759.29,419.21,752.22,157.14Zm-32.8,185.4a520.81,520.81,0,0,1-86.25,157.87C557,596,449.75,660.93,331.31,683.33c-95.72,18.11-179.59,51.07-249.3,98a446.59,446.59,0,0,0-64.15,51.82L19.19,829c2.11-6.52,4.1-12.68,6.39-18C34.52,790,43.49,771,53,752.91c24.09-45.9,51.65-85.73,81.9-118.37,59.23-63.9,136.06-103.9,234.89-122.29C486.48,490.54,594.22,408.88,690,269.53c9.35-13.59,18.94-28.22,28.52-43.46l3.34-5.34c8.66-13.94,17.53-28.2,25.5-42.94A528.76,528.76,0,0,1,719.42,342.54Z"/><g class="cls-10"><path class="cls-11" d="M754.22,159.14c-4.64,10.19-9.87,20.11-15.38,29.85s-11.35,19.31-17.19,28.86C710,237,697.91,255.85,685.2,274.3c-25.42,36.9-53.46,72.09-84.7,104.33a575.78,575.78,0,0,1-49.59,45.52l-6.57,5.27c-2.19,1.75-4.46,3.42-6.68,5.13-4.43,3.46-9,6.68-13.58,10-9.21,6.42-18.56,12.69-28.23,18.41a398.23,398.23,0,0,1-60.41,29.87c-2.59,1.1-5.27,2-7.9,3l-4,1.44c-1.32.49-2.64,1-4,1.38-5.36,1.72-10.68,3.55-16.12,5-10.79,3.22-21.81,5.59-32.83,7.82-43.85,8.13-86.92,21.27-126.83,41.2a384.22,384.22,0,0,0-57,34.81c-1.15.79-2.24,1.66-3.34,2.51l-3.29,2.57-6.59,5.14c-1.11.84-2.17,1.74-3.22,2.66L167.22,603l-6.35,5.43-1.59,1.36-1.53,1.42-3.05,2.85-6.11,5.71c-2.08,1.86-4,3.91-5.93,5.89l-5.85,6a477.11,477.11,0,0,0-42.54,51.64A604.93,604.93,0,0,0,58.51,740c-11,19.48-20.91,39.54-30.11,59.93L25,807.57c-1.13,2.57-2.26,5.11-3.25,7.72-2,5.2-3.74,10.53-5.51,15.84s-3.58,10.62-5.69,15.81a78.86,78.86,0,0,1-7.75,14.87,78.71,78.71,0,0,0,7.47-15c2-5.22,3.71-10.55,5.39-15.88S19,820.25,20.95,815c1-2.64,2.07-5.22,3.16-7.8l3.31-7.72c8.94-20.54,18.63-40.77,29.37-60.45A601.48,601.48,0,0,1,92.2,681.85a479.91,479.91,0,0,1,42.37-52.29,377.82,377.82,0,0,1,107.61-80.2c40.22-20.21,83.61-33.59,127.73-41.87,10.92-2.17,21.81-4.48,32.5-7.64,5.38-1.43,10.65-3.22,16-4.91,1.33-.41,2.64-.88,3.95-1.36l3.93-1.42c2.61-1,5.26-1.83,7.83-2.91A394.49,394.49,0,0,0,494,459.82c9.61-5.65,18.89-11.84,28.06-18.19,4.52-3.26,9.1-6.45,13.51-9.87,2.21-1.7,4.46-3.34,6.65-5.08l6.54-5.22c2.2-1.72,4.32-3.53,6.46-5.32s4.29-3.57,6.4-5.39c4.18-3.7,8.43-7.31,12.52-11.11L580.3,394l6.06-5.77,3-2.89,3-2.95,5.95-5.9c31.36-31.83,59.58-66.71,85.28-103.3,12.93-18.25,25.24-36.95,37.16-55.89,6-9.47,11.91-19,17.57-28.6S749.4,169.25,754.22,159.14Z"/></g><path class="cls-12" d="M286,629C85.77,695.75,6.37,844.87.47,859.69c0-1.52-.06-3-.09-4.55C-4.71,538.51,103.28,415.5,328,327,540.07,243.49,675.84,0,675.84,0q.07,3.86.12,7.7C679.35,324.38,500.29,557.58,286,629Z"/><path class="cls-13" d="M286,629C85.77,695.75,6.37,844.87.47,859.69c0-1.52-.06-3-.09-4.55,27.25-95.67,67.9-195.69,129.78-268.33,53.89-63.27,122.14-87.54,195.87-118,87.37-36,158.34-101.31,210.49-179.29,50.69-75.79,83.86-161,120.34-244,5.43-12.36,10.85-24.79,18-36.22.35-.55.7-1.1,1.06-1.65C679.35,324.38,500.29,557.58,286,629Z"/><path class="cls-14" d="M676,7.7c-.36.55-.71,1.1-1.06,1.65-7.19,11.43-12.61,23.86-18,36.22-36.48,83-69.65,168.21-120.34,244C484.37,367.55,413.4,432.82,326,468.86c-73.73,30.41-142,54.68-195.87,118C68.28,659.45,27.63,759.47.38,855.14c0,1.51,0,3,.09,4.55C6.37,844.87,85.77,695.75,286,629,500.29,557.58,679.35,324.38,676,7.7ZM558.45,407.55c-69.19,103.91-166.51,180.87-274,216.71-83.65,27.88-158.92,74.94-217.68,136.1a465.31,465.31,0,0,0-52.11,64.58C46.11,725.05,86.18,646.15,134,590.05c48.79-57.28,110.76-82.58,176.36-109.36q8.75-3.57,17.61-7.21c82.76-34.14,156.32-96.77,212.74-181.13,42.65-63.77,73.35-135,103-203.9C649.5,75,655.47,61.16,661.44,47.58l.3-.68c2.93-6.67,5.92-13.48,9.21-20.1C669.15,168.18,630.42,299.46,558.45,407.55Z"/><g class="cls-15"><path class="cls-11" d="M676,9.7A5.72,5.72,0,0,1,677,11c.16.3.19.51.1.64s-.29.2-.62.18a5.67,5.67,0,0,1-1.59-.44,5.39,5.39,0,0,1-1.06-1.26c-.16-.3-.18-.51-.09-.65s.3-.2.63-.18A5.39,5.39,0,0,1,676,9.7Z"/><path class="cls-11" d="M674.9,11.35c-6.15,10-11,20.7-15.61,31.45L645.46,75.11c-9.16,21.57-18.24,43.18-27.61,64.67-18.82,42.92-38.91,85.44-63,125.78-24,40.38-52.62,78.16-86,111.27s-71.6,61.56-113.65,82.83l-7.93,3.89-4,1.94-4,1.77-8.09,3.54-4,1.77L323,474.23l-32.54,13.29c-21.66,8.9-43.15,18.17-63.85,29-5.23,2.61-10.26,5.55-15.37,8.38l-1.91,1.07-1.87,1.14-3.74,2.27c-2.48,1.53-5,3-7.45,4.59L189,538.77c-1.21.81-2.44,1.6-3.63,2.43l-3.53,2.58-7.05,5.16c-2.31,1.78-4.54,3.65-6.82,5.46l-3.4,2.74c-.56.46-1.14.9-1.69,1.38L161.21,560l-6.51,5.83c-1.07,1-2.21,1.9-3.22,3l-3.1,3.08-6.2,6.16c-2,2.1-3.93,4.3-5.9,6.44l-2.93,3.24c-1,1.08-2,2.14-2.88,3.28-3.69,4.52-7.44,9-11.08,13.56a499.28,499.28,0,0,0-39,58.17,689.31,689.31,0,0,0-31.85,62.51c-19.31,42.66-34.8,87-48.11,131.93l4.8-16.91,5-16.84c1.71-5.61,3.57-11.17,5.34-16.75.88-2.8,1.82-5.57,2.78-8.34L21.18,790c7.68-22.15,16.12-44.06,25.52-65.56a684.75,684.75,0,0,1,31.46-63A502.07,502.07,0,0,1,117,602.64c3.63-4.63,7.38-9.16,11.06-13.75.9-1.16,1.91-2.24,2.89-3.34l2.94-3.3c2-2.19,3.89-4.43,5.92-6.57l6.25-6.26,3.13-3.13c1-1.06,2.17-2,3.25-3l6.57-5.91,1.64-1.48c.55-.49,1.14-.93,1.71-1.4l3.43-2.79c2.3-1.85,4.56-3.74,6.88-5.55l7.12-5.24,3.56-2.62c1.21-.85,2.44-1.64,3.66-2.47l7.35-4.91c2.46-1.63,5-3.1,7.51-4.65l3.77-2.3,1.88-1.15,1.92-1.08c5.14-2.86,10.22-5.85,15.48-8.49C245.72,502.34,267.29,493,289,484l32.51-13.38,4.06-1.68,4-1.76,8-3.52,4-1.77,3.92-1.93,7.85-3.86C395,435.14,433,407,466.2,374.25a524.59,524.59,0,0,0,46.4-52.44A629.85,629.85,0,0,0,552.18,264c24.34-40,44.7-82.26,63.88-125,9.64-21.35,19-42.84,28.43-64.3q7.07-16.09,14.25-32.14C663.56,31.88,668.58,21.23,674.9,11.35Z"/></g></g></g></g></svg>