<?xml version="1.0" encoding="utf-8"?>
<!-- Generator: Adobe Illustrator 21.0.0, SVG Export Plug-In . SVG Version: 6.00 Build 0)  -->
<svg version="1.1" id="Layer_1" xmlns="http://www.w3.org/2000/svg" xmlns:xlink="http://www.w3.org/1999/xlink" x="0px" y="0px"
	 viewBox="0 0 1400 1400" style="enable-background:new 0 0 1400 1400;" xml:space="preserve">
<style type="text/css">
	.st0{fill:#FFF5E7;stroke:#FFFFFF;}
	.st1{fill:#FFE1B8;stroke:#FFFFFF;}
	.st2{fill:#FFCE8A;stroke:#FFFFFF;}
	.st3{fill:#FFBA5C;stroke:#FFFFFF;}
	.st4{fill:#FFA72E;stroke:#FFFFFF;}
	.st5{fill:#FF9400;stroke:#FFFFFF;}
	.st6{fill:#FFE1B8;}
	.st7{enable-background:new    ;}
	.st8{fill:#636363;}
	.st9{fill:#FFCE8A;}
	.st10{fill:#FFF5E7;}
	.st11{fill:#FFBA5C;}
	.st12{fill:#FF9400;}
	.st13{fill:#FFA72E;}
</style>
<rect x="50" y="50" class="st0" width="70" height="70"/>
<rect x="120" y="50" class="st1" width="70" height="70"/>
<rect x="190" y="50" class="st2" width="70" height="70"/>
<rect x="260" y="50" class="st3" width="70" height="70"/>
<rect x="330" y="50" class="st4" width="70" height="70"/>
<rect x="400" y="50" class="st5" width="70" height="70"/>
<g id="용산구">
	<path id="Yongsan-gu" class="st6" d="M737,767.3c8.7,5.8,11.7,17.2,28.5,14.5c1,1.1,4.2,0.2,6,0.5c3,0,6,0,9,0c1,1.1,4.2,0.2,6,0.5
		c8.1,3.2,14.7,8,21.5,12.5c3,15.7,8.7,31.3,11,46c-17.6,10.8-33.2,28.2-48.5,45c-11.6,12.8-23.2,22.9-35.5,34.5
		c-7.4,7-10.9,11.9-22,13c-12.9,1.2-36.4,1.7-46-2c-5.8-2.2-10.8-9.6-15-14.5c-4.8-5.6-9.4-10.6-13.5-16c-2-3.5-5.2-5.8-8-8.5
		c-2.2-0.6-3.1-2.5-4.5-4c-2-2.4-4.1-4.5-6.5-6.5c-1.8-2.2-3.8-4.2-6-6c-5.5-5.3-10.4-11.3-15.5-17c25.9-25,53.6-48.1,62.5-90
		c13.8-0.7,26.5-2.5,40.5-3c2.8,0,5.7,0,8.5,0c2.3-0.3,6,0.7,7.5-0.5c3.3,0,6.7,0,10,0C730.6,766.1,735.6,764.9,737,767.3z"/>
	<g class="st7">
		<path class="st8" d="M684.7,840.8c0,1.1-0.3,2.1-0.9,2.9c-0.6,0.9-1.5,1.6-2.8,2.2v5.5h8.7v2.7h-32.2v-2.7h8.6v-5.5
			c-1.3-0.6-2.2-1.3-2.8-2.1c-0.6-0.9-0.9-1.8-0.9-2.9c0-0.9,0.2-1.8,0.7-2.6s1.2-1.5,2.1-2.1c0.9-0.6,2.1-1.1,3.5-1.4
			c1.4-0.3,3-0.5,4.9-0.5s3.5,0.2,4.9,0.5c1.4,0.3,2.6,0.8,3.5,1.4s1.6,1.3,2.1,2.1C684.4,839.1,684.7,839.9,684.7,840.8z
			 M685.1,862.3c0,0.9-0.2,1.7-0.7,2.5c-0.5,0.8-1.2,1.4-2.2,2c-1,0.6-2.2,1-3.6,1.3c-1.4,0.3-3.1,0.5-5,0.5c-1.9,0-3.6-0.2-5-0.5
			c-1.4-0.3-2.6-0.8-3.6-1.3c-1-0.6-1.7-1.2-2.2-2c-0.5-0.8-0.7-1.6-0.7-2.5s0.2-1.7,0.7-2.4c0.5-0.7,1.2-1.4,2.2-1.9
			c1-0.5,2.2-1,3.6-1.3c1.4-0.3,3.1-0.4,5-0.4c1.9,0,3.5,0.1,5,0.4c1.4,0.3,2.6,0.7,3.6,1.3c1,0.5,1.7,1.2,2.2,1.9
			C684.9,860.6,685.1,861.4,685.1,862.3z M681.6,862.3c0-0.4-0.1-0.8-0.4-1.3c-0.3-0.4-0.7-0.8-1.3-1.1s-1.5-0.6-2.5-0.8
			c-1-0.2-2.3-0.3-3.8-0.3c-1.5,0-2.8,0.1-3.8,0.3s-1.8,0.5-2.5,0.8c-0.6,0.3-1.1,0.7-1.3,1.1c-0.3,0.4-0.4,0.8-0.4,1.3
			c0,0.4,0.1,0.8,0.4,1.3c0.3,0.4,0.7,0.8,1.3,1.1c0.6,0.3,1.5,0.6,2.5,0.8s2.3,0.3,3.8,0.3c1.5,0,2.8-0.1,3.8-0.3
			c1-0.2,1.9-0.5,2.5-0.8s1.1-0.7,1.3-1.1C681.5,863.2,681.6,862.7,681.6,862.3z M681.3,841c0-0.5-0.2-1.1-0.5-1.6
			c-0.3-0.5-0.8-0.9-1.4-1.3c-0.6-0.4-1.5-0.7-2.4-0.9c-1-0.2-2.1-0.4-3.5-0.4c-1.4,0-2.5,0.1-3.5,0.4c-1,0.2-1.8,0.5-2.4,0.9
			c-0.6,0.4-1.1,0.8-1.4,1.3c-0.3,0.5-0.5,1-0.5,1.6c0,0.5,0.2,1,0.5,1.4c0.3,0.4,0.8,0.8,1.4,1.2s1.4,0.6,2.4,0.8
			c1,0.2,2.1,0.3,3.5,0.3c1.3,0,2.5-0.1,3.5-0.3c1-0.2,1.8-0.5,2.4-0.8c0.6-0.3,1.1-0.7,1.4-1.2C681.1,841.9,681.3,841.5,681.3,841z
			 M677.7,846.9c-1.3,0.2-2.7,0.3-4.2,0.3c-1.6,0-3-0.1-4.2-0.4v4.6h8.4V846.9z"/>
		<path class="st8" d="M692.5,854.4l-2.2-2.1c6.5-3.8,9.6-9.4,9.2-16.8h3.3c0,1.2,0,2.3-0.1,3.3c-0.1,1-0.3,2.1-0.6,3.1
			c1.1,2.1,2.4,3.9,3.8,5.4c1.5,1.4,3.2,2.7,5.2,3.8l-2,2.3c-1.8-1-3.3-2.2-4.7-3.5c-1.4-1.4-2.6-2.9-3.5-4.5
			c-0.9,1.9-2,3.7-3.4,5.2C696,852.1,694.3,853.3,692.5,854.4z M718,867.6h-21.1v-10.4h3.3v7.6H718V867.6z M722.6,846.9h-5.3v12
			h-3.2v-24.5h3.2v9.6h5.3V846.9z"/>
		<path class="st8" d="M746.2,850.9c0.1-1,0.3-2,0.4-3c0.1-1.1,0.3-2.1,0.4-3.2c0.1-1.1,0.2-2.1,0.2-3.1c0.1-1,0.1-2,0.1-2.9h-18.8
			v-2.7h22.1c0,1.3,0,2.6-0.1,3.9s-0.2,2.7-0.3,4c-0.1,1.3-0.3,2.6-0.4,3.8c-0.1,1.2-0.3,2.3-0.4,3.3h5.9v2.7h-13.8v14.5h-3.3v-14.5
			h-14.4v-2.7H746.2z"/>
	</g>
</g>
<g id="마포구">
	<path id="Mapo-gu" class="st9" d="M402.9,583.8c6.6,6,6.6,18.8,20,18c6,13.4,17.6,19.2,29,28c7.4,5.7,15.4,10.8,22,16.5
		c12.7,11,22.3,25.9,33.5,36c5.6,5,12.5,8.9,18,14.5c2.3,2.7,4.8,5.2,7.5,7.5c0.5,0,0.6,0.4,1,0.5c2.5,2.9,5.1,5.5,8,8
		c2.3,2.7,4.8,5.2,7.5,7.5c0.5,0,0.6,0.4,1,0.5c2.3,2.7,4.8,5.2,7.5,7.5c2.2,2.3,4,5,7,6.5c13.2,1.7,33.1,3.4,48,5
		c5.7,0.6,11.9,2.4,16,1.5c6.4-1.4,9.3-9.6,16-10.5c1.6,5.9,5,11.4,7,17.5c1.6,4.9,5.1,15.4,5,20s-5,19.3-6.5,23
		c-5,12.4-13.3,21.7-21,31c-10.3,12.5-22.8,24.4-34,34c-2.9-2.5-5-5.6-8-8s-6-4.7-9-7c-5.8-4.6-11.7-9.8-18-13.5
		c-19.9-11.7-41.4-19.5-63-27.5c-10.1-3.8-20.5-9.3-31-14.5c-10.1-5-21.6-9.2-30.5-15c-6.7-4.4-13.3-11.7-20-17.5
		c-17-14.8-33.6-28.6-50-43.5c-3.3-3-7.9-6.2-10-9c-3.9-5.2-4.9-12.5-8-18c-2.8-5-7.8-10.1-12-15c-6.8-8-12.3-16.2-21.5-20.5
		c0-0.2,0-0.3,0-0.5c8.3-2.7,16.5-15.2,25-17c9.1-2,18.7,0.8,29.5-1c3.5-3.3,7.5-7.1,11.5-11.5c3.1-3.3,9.4-8.8,10.5-12.5
		c0.7-2.3-0.2-4.9,0.5-7C393.4,591.5,399.6,589.2,402.9,583.8z"/>
	<g class="st7">
		<path class="st8" d="M453.2,746.4h-14.8v-21.6h14.8V746.4z M450.1,743.7v-16.2h-8.4v16.2H450.1z M468.9,736.7h-5.8v19h-3.2v-33.8
			h3.2v11.9h5.8V736.7z"/>
		<path class="st8" d="M473.4,741.1v-2.7h4.7l-0.3-9.7h3.2l0.2,9.7h8.5l0.3-9.7h3.2l-0.4,9.7h4.8v2.7H487v7h14.2v2.7h-31.5v-2.7
			h13.9v-7H473.4z M474,727.6v-2.7h23.1v2.7H474z"/>
		<path class="st8" d="M525.2,738.4c0.1-1,0.3-2,0.4-3s0.3-2.1,0.4-3.2c0.1-1.1,0.2-2.1,0.2-3.1c0.1-1,0.1-2,0.1-2.9h-18.8v-2.7
			h22.1c0,1.3,0,2.6-0.1,3.9c-0.1,1.4-0.2,2.7-0.3,4c-0.1,1.3-0.3,2.6-0.4,3.8c-0.1,1.2-0.3,2.3-0.4,3.3h5.9v2.7h-13.8v14.5h-3.3
			v-14.5h-14.4v-2.7H525.2z"/>
	</g>
</g>
<g id="서대문구">
	<path id="Seodaemun-gu" class="st9" d="M652,687.8c5.4,5.9,12.3,10.3,17.5,16.5c-9,16.1-28.1,22.3-41.5,34
		c-13.6-1.5-30.2-3.4-45.5-5c-9-0.9-16.8-0.2-20.5-6c-2.5-2.9-5.1-5.5-8-8c-2.3-2.7-4.8-5.2-7.5-7.5c-0.4-0.1-0.5-0.5-1-0.5
		c-2.5-2.9-5.1-5.5-8-8c-2.3-2.7-4.8-5.2-7.5-7.5c-13.2-8.7-25.5-21.9-36.5-34c-4.1-4.5-14.5-11.8-15.5-17c-0.5-2.6,1.7-16.7,3-20
		c0.9-2.3,2.9-3.7,4.5-5c1.9-1.5,3.5-3.1,5-5c0-0.2,0-0.3,0-0.5c2-1.6,3.9-3.5,5.5-5.5c1.3-1.6,2.1-3.6,5.5-3c5.5,0,11,0,16.5,0
		c3.2-0.3,7.7,0.7,10-0.5c6.5,0.2,12.6-0.1,18.5-0.5c6.3-6.2,10.4-14.6,13.5-24c10.9-2.6,19.7-7.3,29.5-11
		c2.5-10.7,6.5-19.9,11.5-28c8.3-3.8,13.5-11.9,27-9c0,0.5,0,1,0,1.5c-1.2,2.7-0.2,7.5-0.5,11c0,3.8,0,7.7,0,11.5
		c4.4,4.4,11.7,6,17.5,9c2.9,11.2,5.8,22.6,8,34.5c-4.3,13.2-8.5,29-13,44c-1.5,5.1-4.4,10.3-4.5,14.5c-0.1,6.4,4.3,11.7,5.5,18
		c1.6,2,3.5,3.9,5.5,5.5C648.1,684.3,650,686.2,652,687.8z"/>
	<g class="st7">
		<path class="st8" d="M505.6,663.3l-2.2-2c1.5-1.1,2.8-2.3,4.1-3.6c1.2-1.4,2.3-2.9,3.2-4.7c0.9-1.8,1.5-3.8,1.9-6s0.5-4.7,0.3-7.4
			h3.3c0,1.6,0,3.1-0.1,4.5c-0.1,1.4-0.3,2.8-0.6,4.1c0.9,2.5,2.1,4.7,3.7,6.8s3.5,3.8,5.7,5.3l-2,2.3c-1.8-1.3-3.4-2.8-4.8-4.5
			c-1.4-1.7-2.6-3.7-3.7-5.9c-0.9,2.4-2.1,4.4-3.5,6.3S507.5,661.9,505.6,663.3z M521.1,651.6v-2.7h7.3v-11.3h3.1v32.9h-3.1v-18.9
			H521.1z"/>
		<path class="st8" d="M537.8,661.9v-21.5h11.6v2.7H541v16.1h1.2c2,0,3.9-0.1,5.6-0.4c1.7-0.3,3-0.5,4.1-0.8v2.6
			c-0.6,0.2-1.3,0.3-2.1,0.5s-1.6,0.3-2.5,0.4c-0.9,0.1-1.8,0.2-2.8,0.3c-0.9,0.1-1.9,0.1-2.8,0.1H537.8z M564.2,670.5h-3.1v-18
			h-4.5v17.1h-3V638h3v11.9h4.5v-12.2h3.1V670.5z"/>
		<path class="st8" d="M586.1,663.7h-3.2v-7h-14.8V654h31.3v2.7h-13.3V663.7z M595.4,670h-22.1v-9.8h3.1v7.1h19V670z M573.3,650.3
			v-11.8h20.8v11.8H573.3z M591,647.6v-6.4h-14.5v6.4H591z"/>
		<path class="st8" d="M622.4,653.6c0.1-0.9,0.3-1.9,0.4-3c0.1-1,0.3-2.1,0.4-3.1s0.2-2,0.2-3c0.1-1,0.1-1.9,0.1-2.8h-18.3V639h21.5
			c0,1.2,0,2.5-0.1,3.8c-0.1,1.3-0.2,2.6-0.3,3.9c-0.1,1.3-0.3,2.5-0.4,3.7c-0.1,1.2-0.3,2.2-0.4,3.2h5.8v2.6h-13.4v14.1h-3.2v-14.1
			h-14v-2.6H622.4z"/>
	</g>
</g>
<g id="종로구">
	<path id="Jongno-gu" class="st6" d="M720,682.3c-13.6,8.7-29.5,15.2-47.5,19.5c-6.4-5.8-13.3-11.1-19-17.5c-1.6-2-3.5-3.9-5.5-5.5
		c-4.5-4.7-9.1-12.8-9-20c0.1-3.8,2.5-9.5,4-14.5c3-10,6.1-18.9,9-28.5c1.5-5,3.8-10.6,4-15c0.3-6.6-2-13.6-3.5-19.5
		c-1.4-5.9-3.3-11.5-5-18c-5.4-2.7-11.8-4.5-16.5-8c0-0.7,0-1.3,0-2c1.2-1.3,0.2-4.8,0.5-7c0-3.7,0-7.3,0-11c0-3.3,0-6.7,0-10
		c1.2-1.3,0.2-4.8,0.5-7c0-3.7,0-7.3,0-11c0-3.3,0-6.7,0-10c1.2-1.3,0.2-4.8,0.5-7c0-3.7,0-7.3,0-11c0.9-12.7,0.7-22.7,4.5-31
		c3.2-7.1,11.8-11.7,16.5-18.5c3.3-4.9,4.5-9.6,8-14.5c12.2-1.2,22.3-4.4,34.5-5.5c4.3,4.8,10,8,15.5,11.5
		c6.9,16.8,8.5,34.3,13.5,52c5,17.9,16.7,33.5,17,55.5c-2.9,5.8-5.3,12.1-8,18c-5.3,1.9-10.5,3.8-15.5,6c-0.8,6.7-2.9,14.8-2,21.5
		c9.8,8.8,27.4,6.8,42.5,11c7.7,2.1,13.4,6.4,20,8c11.2,22.2,19.4,47.3,35,65c13.2,1,26.7,1.6,39.5,3c0,1.2,0,2.3,0,3.5
		c-1.2,2.3-0.2,6.8-0.5,10c0,4.3,0,8.7,0,13c-4.3,0-8.7,0-13,0c-1.8,0.3-5-0.6-6,0.5c-3.2,0-6.3,0-9.5,0c-1.8,0.3-5-0.6-6,0.5
		c-3,0-6,0-9,0c-2,0.3-5.3-0.7-6.5,0.5c-12.7,0.9-23.1,4.2-35.5,5.5c-8.3,0-16.7,0-25,0c-5-3.9-8.3-9.4-14-12.5
		C726.8,681.5,721.7,681.5,720,682.3z"/>
	<g class="st7">
		<path class="st8" d="M689.5,632.1v4.6h14.1v2.7h-32.2v-2.7h14.8v-4.6H689.5z M691.5,627.5c1.5,0.8,3.1,1.5,4.8,2.1
			c1.7,0.6,3.5,1,5.2,1.4l-1.6,2.5c-0.9-0.2-1.8-0.4-2.7-0.8s-1.9-0.7-2.9-1c-1-0.4-1.9-0.8-2.8-1.3s-1.7-0.9-2.5-1.4
			c-2,1.1-4.2,2-6.5,2.8c-2.3,0.8-4.6,1.3-6.9,1.7L674,631c2.1-0.3,4-0.7,5.8-1.2c1.8-0.5,3.5-1.1,5-1.8c1.5-0.7,2.9-1.4,4.1-2.2
			c1.2-0.8,2.2-1.5,3.1-2.3c-1.3,0-2.6,0.1-3.9,0.1c-1.3,0-2.6,0-3.9,0h-7.7v-2.6h10.5c1.6,0,3.1,0,4.7,0s3.2,0,4.9-0.1
			c0.3,0,0.5,0.1,0.6,0.3c0.1,0.2,0.1,0.4,0,0.6c-0.6,1.1-1.4,2.1-2.4,3S692.8,626.7,691.5,627.5z M699.2,647.8
			c0,0.9-0.2,1.7-0.7,2.4c-0.5,0.8-1.2,1.4-2.2,2c-1,0.6-2.2,1-3.6,1.3c-1.4,0.3-3.1,0.5-5,0.5c-1.9,0-3.6-0.2-5-0.5
			c-1.4-0.3-2.6-0.8-3.6-1.3c-1-0.6-1.7-1.2-2.2-2c-0.5-0.8-0.7-1.6-0.7-2.4s0.2-1.7,0.7-2.4s1.2-1.4,2.2-1.9s2.2-0.9,3.6-1.2
			c1.4-0.3,3.1-0.4,5-0.4c1.9,0,3.5,0.1,5,0.4c1.4,0.3,2.6,0.7,3.6,1.2s1.7,1.2,2.2,1.9C698.9,646.2,699.2,647,699.2,647.8z
			 M695.7,647.8c0-0.4-0.1-0.8-0.4-1.3c-0.3-0.4-0.7-0.8-1.3-1.1s-1.5-0.6-2.5-0.8c-1-0.2-2.3-0.3-3.8-0.3c-1.5,0-2.8,0.1-3.8,0.3
			c-1,0.2-1.8,0.5-2.5,0.8s-1.1,0.7-1.3,1.1c-0.3,0.4-0.4,0.8-0.4,1.3c0,0.4,0.1,0.8,0.4,1.3s0.7,0.8,1.3,1.1s1.5,0.6,2.5,0.8
			c1,0.2,2.3,0.3,3.8,0.3c1.5,0,2.8-0.1,3.8-0.3c1-0.2,1.9-0.5,2.5-0.8s1.1-0.7,1.3-1.1C695.6,648.7,695.7,648.3,695.7,647.8z"/>
		<path class="st8" d="M710,640.2V630h17.9v-4.9h-18v-2.8h21.2v10.3h-17.9v4.9h19.1v2.7h-10v6h14.1v2.7h-31.5v-2.7h14.1v-6H710z"/>
		<path class="st8" d="M760.2,636.4c0.1-1,0.3-2,0.4-3c0.1-1.1,0.3-2.1,0.4-3.2c0.1-1.1,0.2-2.1,0.2-3.1c0.1-1,0.1-2,0.1-2.9h-18.8
			v-2.7h22.1c0,1.3,0,2.6-0.1,3.9s-0.2,2.7-0.3,4c-0.1,1.3-0.3,2.6-0.4,3.8c-0.1,1.2-0.3,2.3-0.4,3.3h5.9v2.7h-13.8v14.5h-3.3v-14.5
			h-14.4v-2.7H760.2z"/>
	</g>
</g>
<g id="중구">
	<path id="Jung-gu" class="st10" d="M852,722.8c-3.8,7.5-7.1,15.5-13.5,20.5c-2.9,2.5-5.5,5.1-8,8c-0.4,0.1-0.5,0.5-1,0.5
		c-2.3,2.2-5,4-6.5,7c-4,11.5-9.6,21.4-14.5,32c-7.9-3.1-13.1-8.9-21.5-11.5c-1-1.1-4.2-0.2-6-0.5c-3,0-6,0-9,0
		c-1-1.1-4.2-0.2-6-0.5c-17.8,2.7-19.9-10.4-29.5-16c-2.3-1.2-6.8-0.2-10-0.5c-2.3,0.3-6-0.7-7.5,0.5c-3.3,0-6.7,0-10,0
		c-2.7,0.3-6.7-0.7-8.5,0.5c-13.5,1.1-27.3,2-40.5,3.5c-3-13.3-7.3-25.4-12-37c9.2-7.3,19.5-13.5,25-24.5c12.8-3.3,24.6-6.3,35.5-12
		c6.6-3.5,9.1-8.3,19.5-7c4,4.4,8.1,8.5,12.5,12.5c24.2,3.2,42.3-4,63.5-5.5c1.8-0.3,5,0.6,6-0.5c3,0,6,0,9,0c2-0.3,5.3,0.7,6.5-0.5
		c3,0,6,0,9,0c2-0.3,5.3,0.7,6.5-0.5c3,0,6,0,9,0c0.8,0,1.7,0,2.5,0c0,2.8,0,5.7,0,8.5c0,3,0,6,0,9c-1.1,1-0.2,4.2-0.5,6
		C852,717.5,852,720.1,852,722.8z"/>
	<g class="st7">
		<path class="st8" d="M732.2,737.7V734h-14.5v-2.7h32.2v2.7h-14.4v3.7c3.3,0.2,5.8,0.8,7.4,1.9s2.5,2.5,2.5,4.1
			c0,0.9-0.2,1.7-0.7,2.4c-0.5,0.8-1.2,1.4-2.2,2c-1,0.6-2.2,1-3.6,1.3c-1.4,0.3-3.1,0.5-5,0.5c-1.9,0-3.6-0.2-5-0.5
			c-1.4-0.3-2.6-0.8-3.6-1.3c-1-0.6-1.7-1.2-2.2-2c-0.5-0.8-0.7-1.6-0.7-2.4c0-1.6,0.8-3,2.5-4.1
			C726.5,738.5,728.9,737.9,732.2,737.7z M737.6,723.5c1.5,0.8,3.1,1.5,4.8,2c1.7,0.6,3.4,1,5.2,1.4l-1.5,2.5
			c-0.9-0.2-1.8-0.4-2.7-0.7s-1.9-0.6-2.9-1s-1.9-0.8-2.8-1.2c-0.9-0.4-1.8-0.9-2.5-1.4c-2,1.1-4.1,2-6.4,2.8
			c-2.3,0.7-4.6,1.3-6.8,1.6l-1.5-2.4c2.1-0.3,4-0.7,5.8-1.2c1.8-0.5,3.5-1.1,5-1.8s2.9-1.4,4-2.2c1.2-0.8,2.2-1.6,2.9-2.3
			c-1.3,0-2.6,0.1-3.9,0.1c-1.3,0-2.6,0-3.9,0H723v-2.6h10.2c1.6,0,3.1,0,4.7,0s3.2,0,4.9-0.1c0.3,0,0.5,0.1,0.6,0.3s0.1,0.4,0,0.6
			c-0.6,1.1-1.4,2.1-2.3,3C740,721.8,738.9,722.7,737.6,723.5z M741.9,743.8c0-0.4-0.1-0.8-0.4-1.3s-0.7-0.8-1.3-1.2
			s-1.5-0.6-2.5-0.8c-1-0.2-2.3-0.3-3.8-0.3c-1.5,0-2.8,0.1-3.8,0.3c-1,0.2-1.9,0.5-2.5,0.8s-1.1,0.7-1.3,1.2s-0.4,0.9-0.4,1.3
			c0,0.4,0.1,0.8,0.4,1.3c0.3,0.4,0.7,0.8,1.3,1.1c0.6,0.3,1.5,0.6,2.5,0.9c1,0.2,2.3,0.3,3.8,0.3c1.5,0,2.8-0.1,3.8-0.3
			c1-0.2,1.9-0.5,2.5-0.9c0.6-0.3,1.1-0.7,1.3-1.1C741.7,744.6,741.9,744.2,741.9,743.8z"/>
		<path class="st8" d="M773.5,732.4c0.1-1,0.3-2,0.4-3c0.1-1.1,0.3-2.1,0.4-3.2c0.1-1.1,0.2-2.1,0.2-3.1c0.1-1,0.1-2,0.1-2.9h-18.8
			v-2.7h22.1c0,1.3,0,2.6-0.1,3.9s-0.2,2.7-0.3,4c-0.1,1.3-0.3,2.6-0.4,3.8c-0.1,1.2-0.3,2.3-0.4,3.3h5.9v2.7h-13.8v14.5h-3.3v-14.5
			H751v-2.7H773.5z"/>
	</g>
</g>
<g id="동대문구">
	<path id="Dongdaemun-gu" class="st9" d="M943.1,562.3c17.3-12.9,45.8-14.5,69-21.5c4.7,50.8,10.3,100.8,15.5,151
		c-6.6,15-12.3,30.7-19,45.5c-22.8-9.5-47.1-17.5-71.5-25.5c-2-7.8-4.2-15.5-7-22.5c-1-1.5-4.1-0.9-6.5-1c-0.7-1.1-3.5-0.2-5-0.5
		c-4.9,0.3-9.9-0.3-15-0.5s-11.3-1.7-15-0.5c-5,1.6-4.5,8.5-9,11c-1.5,0-3,0-4.5,0c-0.7-1.1-3.5-0.2-5-0.5c-6.9-0.6-9.1-5.9-13.5-9
		c0-2,0-4,0-6c1.2-1.2,0.2-4.5,0.5-6.5c0-3.3,0-6.7,0-10c-1.8-8.8,6.7-12.1,9.5-18c3.2-6.7,2.5-12.9,5.5-20
		c13.1-9.7,25.8-19.9,43-25.5c6-9.4,9.8-20.8,17-29C935.9,569.8,939.6,566.1,943.1,562.3z"/>
	<g class="st7">
		<path class="st8" d="M914.7,648.7h-32.3v-2.7h14.5v-4.3h-9.1v-11.4h21.6v2.8H891v5.9h18.8v2.7h-9.7v4.3h14.5V648.7z M910.1,657.1
			c0,1.9-1,3.4-2.9,4.6s-4.8,1.8-8.6,1.8c-1.9,0-3.6-0.2-5-0.5c-1.4-0.3-2.7-0.8-3.6-1.3c-1-0.6-1.7-1.2-2.2-2
			c-0.5-0.8-0.7-1.6-0.7-2.6c0-1.8,1-3.3,2.9-4.5c1.9-1.1,4.8-1.7,8.7-1.7c3.8,0,6.7,0.6,8.6,1.7
			C909.1,653.8,910.1,655.3,910.1,657.1z M906.6,657.1c0-0.4-0.1-0.9-0.4-1.3c-0.3-0.4-0.7-0.8-1.4-1.1s-1.5-0.6-2.5-0.8
			c-1-0.2-2.3-0.3-3.8-0.3c-1.5,0-2.8,0.1-3.8,0.3c-1,0.2-1.9,0.5-2.5,0.8c-0.6,0.3-1.1,0.7-1.4,1.1c-0.3,0.4-0.4,0.9-0.4,1.3
			c0,0.5,0.1,0.9,0.4,1.4c0.3,0.4,0.7,0.8,1.4,1.2c0.6,0.3,1.5,0.6,2.5,0.8s2.3,0.3,3.8,0.3c1.5,0,2.8-0.1,3.8-0.3s1.9-0.5,2.5-0.8
			c0.6-0.3,1.1-0.7,1.4-1.2C906.5,658,906.6,657.5,906.6,657.1z"/>
		<path class="st8" d="M917.4,654.3v-22.1h11.9v2.7h-8.6v16.6h1.2c2.1,0,4-0.1,5.7-0.4c1.7-0.3,3.1-0.5,4.2-0.8v2.6
			c-0.6,0.2-1.3,0.3-2.1,0.5c-0.8,0.2-1.7,0.3-2.6,0.4c-0.9,0.1-1.9,0.2-2.8,0.3s-1.9,0.1-2.8,0.1H917.4z M944.5,663.1h-3.2v-18.5
			h-4.6v17.6h-3.1v-32.6h3.1v12.2h4.6v-12.6h3.2V663.1z"/>
		<path class="st8" d="M967,656.1h-3.3v-7.2h-15.2v-2.7h32.2v2.7H967V656.1z M976.6,662.6h-22.8v-10.1h3.2v7.3h19.6V662.6z
			 M953.8,642.3v-12.1h21.4v12.1H953.8z M972,639.6v-6.6h-14.9v6.6H972z"/>
		<path class="st8" d="M1004.3,645.8c0.1-1,0.3-2,0.4-3c0.1-1.1,0.3-2.1,0.4-3.2c0.1-1.1,0.2-2.1,0.2-3.1c0.1-1,0.1-2,0.1-2.9h-18.8
			v-2.7h22.1c0,1.3,0,2.6-0.1,3.9s-0.2,2.7-0.3,4c-0.1,1.3-0.3,2.6-0.4,3.8c-0.1,1.2-0.3,2.3-0.4,3.3h5.9v2.7h-13.8v14.5h-3.3v-14.5
			h-14.4v-2.7H1004.3z"/>
	</g>
</g>
<g id="성북구">
	<path id="Seongbuk-gu" class="st11" d="M729.5,392.2c4.8,3.4,6.6,11.5,11.5,15c6.4,4.5,15.8,4.1,23,8c4.4,2.4,8.7,6.7,13,10
		c13.1,10.1,26.3,20.6,38.5,30.5c3.7,16,7.8,31.5,11.5,47.5c6.2,3.3,10.2,8.8,21,7.5c3.5,0,7,0,10.5,0c2-0.3,5.3,0.6,6.5-0.5
		c3.2,0,6.3,0,9.5,0c3.5,0,7,0,10.5,0c2-0.3,5.3,0.6,6.5-0.5c14.4,1.9,18.9-6.1,27.5-10c8.3-16.5,17.2-32.5,26-48.5
		c5.2,6.5,9.9,14.1,15.5,22c3.7,5.2,11,18.6,16.5,21.5c9.7,5.1,23.4,3.5,34.5,9c0,2.3,0,4.7,0,7c-1.2,7.8-0.2,17.8-0.5,26.5
		c-24.1,7.9-54.9,9.1-72,24c-3.9,3.5-7.5,7.1-11,11c-5.7,8.6-10.1,18.6-15.5,27.5c-14.3,4.8-22.8,10.8-33.5,19
		c-3.4,2.6-8.2,4.5-10,7.5c-3.1,5.1-2.6,13.9-5.5,20c-1.1,2.4-7.9,11-10,11.5c-5.1,1.4-12.4-1.1-18.5-1.5c-6.2-0.4-12.3-0.8-19-1
		c-15.9-17.6-23.1-44-35.5-65c-7.1-1.5-12.8-6.5-21-8.5c-14.4-3.6-31-1.9-40-9.5c0.3-6.2,1.2-11.8,2-17.5c5.3-1.5,10-3.7,15-5.5
		c2-7.6,7.7-12.8,8.5-20.5c1.6-14.5-5.1-26-9-36.5c-2.3-6.3-5.5-12.9-7.5-19.5c-5.6-18.6-7.6-38-14-53.5
		c-4.8-3.5-10.8-5.9-14.5-10.5c6.6-1.8,13.2,0.9,18-1C724.2,405.2,724.5,395.8,729.5,392.2z"/>
	<g class="st7">
		<path class="st8" d="M801.2,545.1c0,1.1,0,2.2-0.1,3.2c-0.1,1-0.3,2-0.5,2.9c1,1.9,2.3,3.6,3.7,5.1c1.4,1.4,3.2,2.6,5.3,3.7
			l-2,2.3c-1.8-0.9-3.4-2-4.7-3.3c-1.4-1.3-2.5-2.8-3.5-4.4c-0.9,1.9-2,3.5-3.4,5c-1.4,1.4-3.1,2.7-4.9,3.7l-2.2-2.1
			c3.2-1.8,5.6-4,7.1-6.6s2.3-5.7,2.1-9.4H801.2z M817,571.7c0,0.9-0.2,1.8-0.7,2.6c-0.5,0.8-1.2,1.5-2.1,2.1
			c-0.9,0.6-2.1,1-3.5,1.4c-1.4,0.3-3,0.5-4.9,0.5s-3.5-0.2-4.9-0.5s-2.6-0.8-3.5-1.4c-0.9-0.6-1.6-1.3-2.1-2.1
			c-0.5-0.8-0.7-1.7-0.7-2.6c0-0.9,0.2-1.8,0.7-2.6c0.5-0.8,1.2-1.5,2.1-2.1c0.9-0.6,2.1-1.1,3.5-1.4s3-0.5,4.9-0.5s3.5,0.2,4.9,0.5
			c1.4,0.3,2.6,0.8,3.5,1.4c0.9,0.6,1.6,1.3,2.1,2.1C816.7,569.9,817,570.8,817,571.7z M813.6,571.7c0-0.5-0.2-1-0.5-1.5
			c-0.3-0.5-0.8-0.9-1.4-1.3s-1.5-0.7-2.5-0.9s-2.2-0.3-3.5-0.3c-1.3,0-2.5,0.1-3.5,0.3c-1,0.2-1.8,0.5-2.5,0.9s-1.1,0.8-1.4,1.3
			c-0.3,0.5-0.5,1-0.5,1.5c0,0.5,0.2,1,0.5,1.4c0.3,0.5,0.8,0.9,1.4,1.2c0.7,0.4,1.5,0.6,2.5,0.9c1,0.2,2.1,0.3,3.5,0.3
			c1.4,0,2.5-0.1,3.5-0.3s1.8-0.5,2.5-0.9c0.7-0.4,1.1-0.8,1.4-1.2C813.5,572.7,813.6,572.2,813.6,571.7z M806.6,554.2v-2.8h6.8
			v-7.2h3.2v20.3h-3.2v-10.2H806.6z"/>
		<path class="st8" d="M835.6,567.5v-4.3h-14.4v-2.7h32.2v2.7h-14.5v4.3h9.3v10.6H845v-7.9h-19.1v-2.7H835.6z M826.6,557.2v-12.8
			h3.4v3.8h14.8v-3.8h3.3v12.8H826.6z M844.7,550.9h-14.9v3.6h14.9V550.9z"/>
		<path class="st8" d="M877,560.6c0.1-1,0.3-2,0.4-3c0.1-1.1,0.3-2.1,0.4-3.2c0.1-1.1,0.2-2.1,0.2-3.1s0.1-2,0.1-2.9h-18.8v-2.7
			h22.1c0,1.3,0,2.6-0.1,3.9c-0.1,1.4-0.2,2.7-0.3,4c-0.1,1.3-0.3,2.6-0.4,3.8c-0.1,1.2-0.3,2.3-0.4,3.3h5.9v2.7h-13.8v14.5H869
			v-14.5h-14.4v-2.7H877z"/>
	</g>
</g>
<g id="성동구">
	<path id="Seongdong-gu" class="st9" d="M874.5,701.3c2.2,0,4.3,0,6.5,0c5.3-3.2,4.2-12.8,14.5-11c0.7,1.1,3.5,0.2,5,0.5
		c9.4-0.1,18,0.6,27,1c2.6,7.3,4.7,14.9,7,22.5c24.6,8.6,50.2,16.2,73,26.5c-4.6,27.3-8.4,49.5-20.5,68.5c-4.1,6.5-11.9,11.4-14,18
		c-1.7,5.2-0.7,11-1.5,16c-1.5,9.1-4.7,16.9-6.5,26c-21.1-10.8-42.3-26.8-69.5-33c-5.6-1.3-13.5-1.1-20.5-1.5
		c-20.4-1.2-34.9,0.9-52.5,5c-3.9-15.6-7.9-31.2-12-46.5c6.3-10.3,10.5-22.8,16.5-33.5c2.7-2.3,5.2-4.8,7.5-7.5c2.9-2.5,5.5-5.1,8-8
		c6-5.2,8.7-13.6,13-20.5c1.2-1.7,0.2-5.5,0.5-8c0-2.8,0-5.7,0-8.5c1.2-1.2,0.2-4.5,0.5-6.5c0-2.5,0-5,0-7.5c4.8,2,6,7.7,13,7.5
		C870.2,701.9,873,701,874.5,701.3z"/>
	<g class="st7">
		<path class="st8" d="M873,768.3c0,1.1,0,2.2-0.1,3.2c-0.1,1-0.3,2-0.5,2.9c1,1.9,2.3,3.6,3.7,5.1c1.4,1.4,3.2,2.6,5.3,3.7l-2,2.3
			c-1.8-0.9-3.4-2-4.7-3.3c-1.4-1.3-2.5-2.8-3.5-4.4c-0.9,1.9-2,3.5-3.4,5c-1.4,1.4-3.1,2.7-4.9,3.7l-2.2-2.1c3.2-1.8,5.6-4,7.1-6.6
			c1.6-2.6,2.3-5.7,2.1-9.4H873z M888.7,795c0,0.9-0.2,1.8-0.7,2.6c-0.5,0.8-1.2,1.5-2.1,2.1c-0.9,0.6-2.1,1-3.5,1.4s-3,0.5-4.9,0.5
			c-1.8,0-3.5-0.2-4.9-0.5c-1.4-0.3-2.6-0.8-3.5-1.4c-0.9-0.6-1.6-1.3-2.1-2.1c-0.5-0.8-0.7-1.7-0.7-2.6c0-0.9,0.2-1.8,0.7-2.6
			c0.5-0.8,1.2-1.5,2.1-2.1c0.9-0.6,2.1-1.1,3.5-1.4c1.4-0.3,3-0.5,4.9-0.5c1.8,0,3.5,0.2,4.9,0.5s2.6,0.8,3.5,1.4
			c0.9,0.6,1.6,1.3,2.1,2.1C888.5,793.2,888.7,794,888.7,795z M885.4,795c0-0.5-0.2-1-0.5-1.5c-0.3-0.5-0.8-0.9-1.4-1.3
			c-0.7-0.4-1.5-0.7-2.5-0.9c-1-0.2-2.2-0.3-3.5-0.3c-1.3,0-2.5,0.1-3.5,0.3c-1,0.2-1.8,0.5-2.5,0.9c-0.7,0.4-1.1,0.8-1.4,1.3
			s-0.5,1-0.5,1.5c0,0.5,0.2,1,0.5,1.4c0.3,0.5,0.8,0.9,1.4,1.2c0.7,0.4,1.5,0.6,2.5,0.9c1,0.2,2.1,0.3,3.5,0.3
			c1.4,0,2.5-0.1,3.5-0.3c1-0.2,1.8-0.5,2.5-0.9c0.7-0.4,1.1-0.8,1.4-1.2C885.3,796,885.4,795.5,885.4,795z M878.4,777.5v-2.8h6.8
			v-7.2h3.2v20.3h-3.2v-10.2H878.4z"/>
		<path class="st8" d="M925.1,786.8h-32.3v-2.7h14.5v-4.3h-9.1v-11.4h21.6v2.8h-18.4v5.9h18.8v2.7h-9.7v4.3h14.5V786.8z
			 M920.6,795.2c0,1.9-1,3.4-2.9,4.6c-1.9,1.2-4.8,1.8-8.6,1.8c-1.9,0-3.6-0.2-5-0.5s-2.7-0.8-3.6-1.3c-1-0.6-1.7-1.2-2.2-2
			c-0.5-0.8-0.7-1.6-0.7-2.6c0-1.8,1-3.3,2.9-4.5c1.9-1.1,4.8-1.7,8.7-1.7c3.8,0,6.7,0.6,8.6,1.7
			C919.6,791.9,920.6,793.4,920.6,795.2z M917.1,795.2c0-0.4-0.1-0.9-0.4-1.3c-0.3-0.4-0.7-0.8-1.3-1.1s-1.5-0.6-2.5-0.8
			c-1-0.2-2.3-0.3-3.8-0.3c-1.5,0-2.8,0.1-3.8,0.3c-1,0.2-1.9,0.5-2.5,0.8s-1.1,0.7-1.4,1.1c-0.3,0.4-0.4,0.9-0.4,1.3
			c0,0.5,0.1,0.9,0.4,1.4c0.3,0.4,0.7,0.8,1.4,1.2c0.6,0.3,1.5,0.6,2.5,0.8s2.3,0.3,3.8,0.3c1.5,0,2.8-0.1,3.8-0.3s1.9-0.5,2.5-0.8
			c0.6-0.3,1.1-0.7,1.3-1.2C917,796.1,917.1,795.7,917.1,795.2z"/>
		<path class="st8" d="M948.8,783.9c0.1-1,0.3-2,0.4-3s0.3-2.1,0.4-3.2c0.1-1.1,0.2-2.1,0.2-3.1s0.1-2,0.1-2.9h-18.8v-2.7h22.1
			c0,1.3,0,2.6-0.1,3.9c-0.1,1.4-0.2,2.7-0.3,4s-0.3,2.6-0.4,3.8c-0.1,1.2-0.3,2.3-0.4,3.3h5.9v2.7H944V801h-3.3v-14.5h-14.4v-2.7
			H948.8z"/>
	</g>
</g>
<g id="강북구">
	<path id="Gangbuk-gu" class="st9" d="M809,188.2c0.9,12.4,6.4,24.2,6.5,36.5c0.1,8.8-4,17.2-3,27c-1.2,1.7-0.2,5.5-0.5,8
		c0,4.2,0,8.3,0,12.5c1.8,14.4-6.3,20.1-3.5,34c1.3,1.7,2.8,3.2,4,5c4.1,4.5,8.5,8.9,13,13c4.5,4.9,9.1,9.5,14,14
		c4.2,5,14.8,3.5,22,5.5c29.6,32.4,58.8,65.2,81.5,104.5c-9.2,16-17.9,32.5-26.5,49c-4.9,2.6-9,6-14,8.5c-3,0.3-7.3-0.7-9.5,0.5
		c-3,0-6,0-9,0c-3.5,0-7,0-10.5,0c-2.2,0.3-5.7-0.7-7,0.5c-3,0-6,0-9,0c-3.5,0-7,0-10.5,0c-2.5,0-5,0-7.5,0c-3.2-2-7.1-3.3-9.5-6
		c-4.3-15.6-7.6-32.1-12-47.5c-12.8-10.7-26.5-20.3-39.5-30.5c-4.3-3.4-8.4-8-13-10.5c-6.9-3.7-15.1-4.1-22.5-8
		c-4-4.8-7.5-10.2-11.5-15c1.3-2.9,3.7-4.6,4.5-8c1.2-2,0.2-6.2,0.5-9c-0.3-2.5,0.7-6.3-0.5-8c0-5.2,0-10.3,0-15.5c0-5,0-10,0-15
		c-0.3-2.3,0.7-6-0.5-7.5c0-5.2,0-10.3,0-15.5c0-5,0-10,0-15c0-2.3,0-4.7,0-7c6.3-11.4,14.3-23.2,21-34.5c2.3-3.9,5.7-8.4,7-12
		c4.5-12.8,3.8-26.4,8.5-40.5C784.3,197.1,796.6,192.6,809,188.2z"/>
	<g class="st7">
		<path class="st8" d="M796.8,385c-1.5,0-2.9,0.1-4.4,0.1c-1.5,0-2.9,0-4.4,0h-3.2v-2.7h5.4c1.7,0,3.5,0,5.2,0c1.7,0,3.5,0,5.2-0.1
			c-0.1,2-0.6,4-1.4,5.8c-0.8,1.8-1.8,3.6-3.1,5.1s-2.9,3-4.8,4.2c-1.9,1.2-4,2.2-6.4,2.9l-1.9-2.5c3.9-1.2,7.1-2.8,9.5-5
			C794.8,390.7,796.3,388.1,796.8,385z M809.5,408.1c0,1-0.2,1.9-0.7,2.7c-0.5,0.8-1.1,1.6-2.1,2.2c-0.9,0.6-2.1,1.1-3.4,1.4
			c-1.4,0.3-2.9,0.5-4.7,0.5c-1.8,0-3.4-0.2-4.8-0.5c-1.4-0.3-2.5-0.8-3.4-1.4c-0.9-0.6-1.6-1.3-2.1-2.2c-0.5-0.8-0.7-1.8-0.7-2.7
			c0-1,0.2-1.9,0.7-2.7c0.5-0.8,1.1-1.5,2.1-2.2s2.1-1.1,3.4-1.4c1.4-0.3,2.9-0.5,4.8-0.5c1.8,0,3.4,0.2,4.7,0.5
			c1.4,0.3,2.5,0.8,3.4,1.4c0.9,0.6,1.6,1.3,2.1,2.2C809.2,406.2,809.5,407.1,809.5,408.1z M806.1,408.1c0-0.5-0.1-1.1-0.4-1.6
			c-0.3-0.5-0.8-0.9-1.4-1.3s-1.4-0.7-2.4-0.9c-1-0.2-2.1-0.4-3.4-0.4c-1.3,0-2.4,0.1-3.4,0.4c-1,0.2-1.8,0.5-2.4,0.9
			s-1.1,0.8-1.4,1.3c-0.3,0.5-0.5,1-0.5,1.6c0,0.5,0.2,1.1,0.5,1.6c0.3,0.5,0.8,0.9,1.4,1.3s1.4,0.7,2.4,0.9c1,0.2,2.1,0.3,3.4,0.3
			c1.3,0,2.5-0.1,3.4-0.3c0.9-0.2,1.7-0.5,2.4-0.9s1.1-0.8,1.4-1.3C806,409.2,806.1,408.6,806.1,408.1z M814.4,392.4h-5.3v8.4h-3.2
			v-19.9h3.2v8.7h5.3V392.4z"/>
		<path class="st8" d="M829.6,404.1v-4.3h-14.4v-2.7h32.2v2.7h-14.5v4.3h9.3v10.6H839v-7.9h-19.1v-2.7H829.6z M820.6,393.9v-12.8
			h3.4v3.8h14.8v-3.8h3.3v12.8H820.6z M838.7,387.6h-14.9v3.6h14.9V387.6z"/>
		<path class="st8" d="M871,397.3c0.1-1,0.3-2,0.4-3c0.1-1.1,0.3-2.1,0.4-3.2c0.1-1.1,0.2-2.1,0.2-3.1s0.1-2,0.1-2.9h-18.8v-2.7
			h22.1c0,1.3,0,2.6-0.1,3.9c-0.1,1.4-0.2,2.7-0.3,4c-0.1,1.3-0.3,2.6-0.4,3.8c-0.1,1.2-0.3,2.3-0.4,3.3h5.9v2.7h-13.8v14.5H863V400
			h-14.4v-2.7H871z"/>
	</g>
</g>
<g id="도봉구">
	<path id="Dobong-gu" class="st9" d="M964.1,164.7c-1.4,9-0.3,18.1-2,27.5c-2.1,11.3-9,22.1-11.5,33.5c-0.9,4-1,9.2-1.5,14
		c-0.5,4.7-2,10.1-1.5,14c0.8,6.5,5.8,14,8.5,21c2.3,5.8,7.4,15.9,8,21.5c0.5,4.9-1,11.6-1.5,17.5s-1.5,11.9-2,17.5
		c-1.1,12.3-0.8,25.4-3,36c-1.6,7.6-5.6,14.4-7,21.5c-1.7,8.6-1.3,18.4-3,27.5c-6.8,0-13.4,0.3-19.5,1c-14.8-19.1-31.7-39.5-48.5-58
		c-4.9-5.4-11.2-16.1-17.5-18.5c-7-2.7-17.6,0-22-7c-4.5-4.9-9.1-9.5-14-14c-0.1-1-1.4-1-1.5-2c-4-4.4-8.1-8.5-12.5-12.5
		c-2.5-9.7,2.4-16.2,3.5-24c1.2-1.7,0.2-5.5,0.5-8c0-4.2,0-8.3,0-12.5c-1.9-13.5,2.9-25.4,2.5-37c-0.5-12.4-5.2-23.8-6-36.5
		c11.8-1.3,7.6-21.2,9-35.5c0.8-8.3,5.4-13.9,6.5-19.5c10-4.5,22.6-6.4,38-5.5c2.2-0.3,5.7,0.7,7-0.5c3.5,0.6,8-0.8,10.5,0
		c9.2,2.9,3.6,20.9,10,25c4.4,2.8,14,1.2,20.5,1.5c7.4,0.3,14.3,0.6,21,1C944,158,948.8,166.6,964.1,164.7z"/>
	<g class="st7">
		<path class="st8" d="M844,288.5v-15.7h21.1v2.8h-17.9v10.2h18.2v2.8h-9.1v7.4h13.9v2.7h-31.4v-2.7h14.3v-7.4H844z"/>
		<path class="st8" d="M876.7,283v-12.9h3.4v3.9h14.8v-3.9h3.3V283H889v3.9h14.5v2.7h-32.2v-2.7h14.4V283H876.7z M898.9,297.9
			c0,0.9-0.2,1.7-0.7,2.4c-0.5,0.7-1.2,1.4-2.2,1.9c-1,0.5-2.2,1-3.6,1.3c-1.4,0.3-3.1,0.5-5,0.5c-1.9,0-3.6-0.2-5-0.5
			c-1.4-0.3-2.6-0.7-3.6-1.3c-1-0.5-1.7-1.2-2.2-1.9c-0.5-0.7-0.7-1.5-0.7-2.4c0-1.7,1-3.1,2.9-4.2c1.9-1.1,4.8-1.6,8.6-1.6
			s6.7,0.5,8.6,1.6C897.9,294.8,898.9,296.2,898.9,297.9z M895.5,297.9c0-0.4-0.1-0.8-0.4-1.2s-0.7-0.8-1.3-1.1
			c-0.6-0.3-1.5-0.6-2.5-0.8c-1-0.2-2.3-0.3-3.8-0.3c-1.5,0-2.8,0.1-3.8,0.3s-1.8,0.5-2.5,0.8c-0.6,0.3-1.1,0.7-1.3,1.1
			c-0.3,0.4-0.4,0.8-0.4,1.2c0,0.4,0.1,0.8,0.4,1.2c0.3,0.4,0.7,0.8,1.3,1.1c0.6,0.3,1.5,0.6,2.5,0.8s2.3,0.3,3.8,0.3
			c1.5,0,2.8-0.1,3.8-0.3c1-0.2,1.8-0.5,2.5-0.8c0.6-0.3,1.1-0.7,1.3-1.1C895.3,298.7,895.5,298.3,895.5,297.9z M894.9,276.6H880
			v3.6h14.9V276.6z"/>
		<path class="st8" d="M927.2,286.3c0.1-1,0.3-2,0.4-3c0.1-1.1,0.3-2.1,0.4-3.2c0.1-1.1,0.2-2.1,0.2-3.1c0.1-1,0.1-2,0.1-2.9h-18.8
			v-2.7h22.1c0,1.3,0,2.6-0.1,3.9s-0.2,2.7-0.3,4c-0.1,1.3-0.3,2.6-0.4,3.8c-0.2,1.2-0.3,2.3-0.4,3.3h5.9v2.7h-13.8v14.5h-3.3V289
			h-14.4v-2.7H927.2z"/>
	</g>
</g>
<g id="노원구">
	<path id="Nowon-gu" class="st12" d="M1083.6,305.7c-0.5,4.5-3.7,5.6-4.5,10c-0.8,4,0.3,18.5,1.5,23c0.9,3.2,6.8,14.6,9,16
		c6,3.7,16.1,1.4,23.5,3c8.1,1.7,14.9,5.6,22,7.5c2.7,11.2,0.2,20.8,3,30.5c2.1,7.5,9.8,12.6,7,24c-3.2,4.5-5.3,10-9,14
		c-4.6,1.7-8.7,0.5-12.5,2.5c-3.1,1.7-8,9.4-8.5,14c-0.7,6.6,2.3,12.6,6,16.5c-0.7,1.3-1.6,2.4-1.5,4.5c-5.9,1.5-10.2,4.5-18.5,3.5
		c-1.7,0.3-4.6-0.6-5.5,0.5c-2.7,0-5.3,0-8,0c-1.7,0.3-4.6-0.6-5.5,0.5c-2.7,0-5.3,0-8,0c-1.7,0.3-4.6-0.6-5.5,0.5
		c-12.2,0.2-21.8,7.4-31,12c-8.5,4.3-16.5,7.5-24,12c-11.6-2.9-23.7-5.3-35-8.5c-17.1-22.6-34.9-47.2-48.5-71.5
		c6.6-0.5,14.1-0.2,20-1.5c3.2-9.4,1.6-20.4,3.5-29.5c1.4-6.9,5.9-13.9,7.5-21.5c2.2-10.9,1.8-24.5,3-37c0.5-5.7,1.4-11.9,2-18
		c0.5-5.9,1.7-12.7,1-17.5c-1-6.8-5.3-14-8-21c-2.6-6.7-7.2-14.5-8-21c-0.4-3.7,1-8.4,1.5-13c0.5-4.3,0.2-9,1-13
		c2.1-10.4,9-21.3,11.5-33c2.2-10.1,0.4-21.7,3-30.5c5.8-9.2,15.7-8.6,26.5-14.5c3.5-2,9-6.1,12-9c3.1-3,5.6-8.4,8.5-9.5
		c3.2-1.2,10.3-1.7,14-1c3.1,0.6,6.5,4.8,10,7.5c7.9,6.1,13.1,9.8,20.5,15.5c3.4,2.6,6.9,6.7,10,8c8.4,3.6,15.6,1.7,25.5,5.5
		c4.3,15.4-2,19.6-8,28.5c-3.2,4.8-8.4,10.7-8.5,15.5c-0.1,4.4,5.4,13.5,7.5,16.5c3.3,4.9,12.4,11.3,14,17c2.3,7.9-0.5,15.1,1.5,26
		c-3.3,4.7-15.7,6.8-18,12c-1.8,4,0.3,9.4-0.5,16C1083.4,300.2,1082.4,304,1083.6,305.7z"/>
	<g class="st7">
		<path class="st8" d="M992.9,415.1v-15.5h3.3v12.8h18.1v2.7h-9.2v8.3h13.5v2.7h-31.5v-2.7h14.7v-8.3H992.9z"/>
		<path class="st8" d="M1020.9,413.2h6.1c1.2,0,2.6,0,4.1-0.1c1.5,0,3-0.1,4.5-0.2s3-0.2,4.4-0.3c1.4-0.1,2.8-0.3,3.9-0.4v2.6
			c-1.4,0.2-2.9,0.4-4.6,0.5s-3.4,0.3-5.1,0.4v7.5h-3.3v-7.4c-0.7,0-1.4,0.1-2,0.1s-1.3,0-1.9,0h-6.1V413.2z M1041.1,404.4
			c0,1-0.2,1.8-0.6,2.7c-0.4,0.8-1,1.5-1.7,2.1c-0.7,0.6-1.6,1.1-2.7,1.4c-1.1,0.3-2.2,0.5-3.6,0.5c-1.3,0-2.5-0.2-3.6-0.5
			c-1.1-0.3-2-0.8-2.7-1.4c-0.7-0.6-1.3-1.3-1.7-2.1c-0.4-0.8-0.6-1.7-0.6-2.7s0.2-1.8,0.6-2.7s1-1.5,1.7-2.1
			c0.7-0.6,1.6-1.1,2.7-1.4c1.1-0.3,2.2-0.5,3.6-0.5c1.3,0,2.5,0.2,3.6,0.5c1.1,0.3,2,0.8,2.7,1.4c0.7,0.6,1.3,1.3,1.7,2.1
			S1041.1,403.5,1041.1,404.4z M1049.7,430.5h-23.5v-8.7h3.1v6h20.3V430.5z M1037.8,404.4c0-0.4-0.1-0.9-0.3-1.4
			c-0.2-0.5-0.5-0.9-0.9-1.3c-0.4-0.4-1-0.7-1.6-1c-0.7-0.2-1.5-0.4-2.5-0.4s-1.8,0.1-2.5,0.4c-0.7,0.2-1.2,0.6-1.6,1
			c-0.4,0.4-0.7,0.8-0.9,1.3c-0.2,0.5-0.3,0.9-0.3,1.4s0.1,0.9,0.3,1.4c0.2,0.5,0.5,0.9,0.9,1.3c0.4,0.4,1,0.7,1.6,1
			c0.7,0.3,1.5,0.4,2.5,0.4s1.8-0.1,2.5-0.4c0.7-0.3,1.2-0.6,1.6-1c0.4-0.4,0.7-0.8,0.9-1.3C1037.8,405.3,1037.8,404.8,1037.8,404.4
			z M1046,424.6v-4.1h-7.7v-2.7h7.7v-20.4h3.2v27.2H1046z"/>
		<path class="st8" d="M1075.6,413.8c0.1-1,0.3-2,0.4-3c0.1-1.1,0.3-2.1,0.4-3.2c0.1-1.1,0.2-2.1,0.2-3.1c0.1-1,0.1-2,0.1-2.9H1058
			v-2.7h22.1c0,1.3,0,2.6-0.1,3.9s-0.2,2.7-0.3,4c-0.1,1.3-0.3,2.6-0.4,3.8c-0.1,1.2-0.3,2.3-0.4,3.3h5.9v2.7h-13.8V431h-3.3v-14.5
			h-14.4v-2.7H1075.6z"/>
	</g>
</g>
<g id="중랑구">
	<path id="Jungnang-gu" class="st9" d="M1120.1,474.2c4.7,7.8,18.3,6.7,27,10.5c-2.3,12.1,11.3,15.8,13,24.5
		c1.8,9.1-4.7,14.9-5.5,24c-4.3,4.2-9.5,7.5-13,12.5c0,0.3,0,0.7,0,1c-0.8,3.8-0.8,11.2,0,15c0.7,3.9,3.4,5.9,4.5,9.5
		c0,3.3,0,6.7,0,10c-10.6,7.4-3.1,20.2-6.5,32.5c-1.7,6.3-15.7,14.7-19,20.5c-1.6,2.8-1.4,6.4-2.5,8.5c-3.5,6.5-15.5,10.4-16.5,17.5
		c-0.5,3.6,2.7,6.2,4,9c0,2.3,0,4.7,0,7c-0.7,0.3-2.6-0.6-2.5,0.5c-16.4-2.9-23.9,8.3-36,11c-11.8,2.7-22.7-0.3-36.5,2.5
		c-4.7-63-16.2-119.2-15.5-187.5c11.8-5.2,23-11.5,35-17.5c6-3,10.5-5.9,19.5-5.5c1.7-0.3,4.6,0.6,5.5-0.5c2.7,0,5.3,0,8,0
		c1.7-0.3,4.6,0.6,5.5-0.5c2.7,0,5.3,0,8,0c1.7-0.3,4.6,0.6,5.5-0.5C1110.2,479,1114.6,476.1,1120.1,474.2z"/>
	<g class="st7">
		<path class="st8" d="M1047,590.7V587h-14.5v-2.7h32.2v2.7h-14.4v3.7c3.3,0.2,5.8,0.8,7.4,1.9s2.5,2.5,2.5,4.1
			c0,0.9-0.2,1.7-0.7,2.4c-0.5,0.8-1.2,1.4-2.2,2c-1,0.6-2.2,1-3.6,1.3c-1.4,0.3-3.1,0.5-5,0.5c-1.9,0-3.6-0.2-5-0.5
			c-1.4-0.3-2.6-0.8-3.6-1.3c-1-0.6-1.7-1.2-2.2-2c-0.5-0.8-0.7-1.6-0.7-2.4c0-1.6,0.8-3,2.5-4.1
			C1041.3,591.6,1043.7,590.9,1047,590.7z M1052.5,576.5c1.5,0.8,3.1,1.5,4.8,2c1.7,0.6,3.4,1,5.2,1.4l-1.5,2.5
			c-0.9-0.2-1.8-0.4-2.7-0.7s-1.9-0.6-2.9-1s-1.9-0.8-2.8-1.2c-0.9-0.4-1.8-0.9-2.5-1.4c-2,1.1-4.1,2-6.4,2.8
			c-2.3,0.7-4.6,1.3-6.8,1.6l-1.5-2.4c2.1-0.3,4-0.7,5.8-1.2c1.8-0.5,3.5-1.1,5-1.8s2.9-1.4,4-2.2c1.2-0.8,2.2-1.6,2.9-2.3
			c-1.3,0-2.6,0.1-3.9,0.1c-1.3,0-2.6,0-3.9,0h-7.4v-2.6h10.2c1.6,0,3.1,0,4.7,0s3.2,0,4.9-0.1c0.3,0,0.5,0.1,0.6,0.3s0.1,0.4,0,0.6
			c-0.6,1.1-1.4,2.1-2.3,3C1054.8,574.8,1053.7,575.7,1052.5,576.5z M1056.7,596.8c0-0.4-0.1-0.8-0.4-1.3s-0.7-0.8-1.3-1.2
			s-1.5-0.6-2.5-0.8c-1-0.2-2.3-0.3-3.8-0.3c-1.5,0-2.8,0.1-3.8,0.3c-1,0.2-1.9,0.5-2.5,0.8s-1.1,0.7-1.3,1.2s-0.4,0.9-0.4,1.3
			c0,0.4,0.1,0.8,0.4,1.3c0.3,0.4,0.7,0.8,1.3,1.1c0.6,0.3,1.5,0.6,2.5,0.9c1,0.2,2.3,0.3,3.8,0.3c1.5,0,2.8-0.1,3.8-0.3
			c1-0.2,1.9-0.5,2.5-0.9c0.6-0.3,1.1-0.7,1.3-1.1C1056.6,597.6,1056.7,597.2,1056.7,596.8z"/>
		<path class="st8" d="M1070.6,585h3.9c2.9,0,5.4-0.1,7.5-0.4c2.1-0.3,4-0.6,5.5-1v2.7c-1.8,0.4-3.8,0.8-6.1,1
			c-2.3,0.2-4.7,0.4-7.3,0.4h-6.7v-10.2h11.6v-4.7h-11.7v-2.7h14.9v9.9h-11.5V585z M1092.8,596.7c0,0.9-0.2,1.8-0.7,2.5
			c-0.5,0.8-1.1,1.4-2.1,2c-0.9,0.6-2.1,1-3.4,1.3c-1.4,0.3-2.9,0.5-4.7,0.5c-1.8,0-3.4-0.2-4.8-0.5c-1.4-0.3-2.5-0.8-3.4-1.3
			c-0.9-0.6-1.6-1.2-2.1-2c-0.5-0.8-0.7-1.6-0.7-2.5c0-1.8,0.9-3.3,2.8-4.5c1.8-1.2,4.6-1.7,8.2-1.7c3.6,0,6.3,0.6,8.2,1.7
			C1091.8,593.3,1092.8,594.8,1092.8,596.7z M1089.4,596.7c0-1-0.6-1.9-1.8-2.6c-1.2-0.7-3.2-1.1-5.8-1.1c-2.6,0-4.5,0.4-5.8,1.1
			c-1.2,0.7-1.9,1.6-1.9,2.6s0.6,1.9,1.9,2.6c1.2,0.7,3.2,1.1,5.8,1.1c2.6,0,4.6-0.4,5.8-1.1S1089.4,597.8,1089.4,596.7z
			 M1097.7,579.7h-5.3v10.7h-3.2v-21.4h3.2v7.9h5.3V579.7z"/>
		<path class="st8" d="M1121.3,585.4c0.1-1,0.3-2,0.4-3c0.1-1.1,0.3-2.1,0.4-3.2c0.1-1.1,0.2-2.1,0.2-3.1c0.1-1,0.1-2,0.1-2.9h-18.8
			v-2.7h22.1c0,1.3,0,2.6-0.1,3.9s-0.2,2.7-0.3,4c-0.1,1.3-0.3,2.6-0.4,3.8c-0.1,1.2-0.3,2.3-0.4,3.3h5.9v2.7h-13.8v14.5h-3.3v-14.5
			h-14.4v-2.7H1121.3z"/>
	</g>
</g>
<g id="은평구">
	<path id="Eunpyeong-gu" class="st13" d="M575.5,330.7c7.6,1,9.3-2.5,13-6.5c7.2-7.8,13.5-17.2,18-25.5c14.7,12.1,30.8,26.3,46,39.5
		c3.9,3.4,13.8,9.4,15,13.5c0.9,2.8-0.7,6.8,0,9c0,4.8,0,9.7,0,14.5c0.3,2.3-0.7,6,0.5,7.5c2,14.5-6.1,18.9-9.5,28
		c0.6,0.2,1,0.6,1,1.5c-5.1,9.6-10.1,17.5-17,25c-3,3.3-7.6,6.4-9,10c-2.8,7.1-1.9,15.1-4.5,24c-1.2,1.3-0.2,4.8-0.5,7
		c0,3.7,0,7.3,0,11c0,3.3,0,6.7,0,10c-1.2,1.3-0.2,4.8-0.5,7c0,3.7,0,7.3,0,11c0,4.2,0,8.3,0,12.5c-9.9-2.6-14.4,0.3-20.5,4
		c-3,1.8-6.6,3.6-8.5,5.5c-6.8,6.9-9.3,19-12,28c-9.6,3.9-19,8-29.5,11c-3,8.4-6.4,16.2-11.5,22.5c-1.1,0.9-3.7,0.3-5.5,0.5
		c-3.2,0.3-7.7-0.7-10,0.5c-4.7,0-9.3,0-14,0c-5.3,0.3-12-0.7-16.5,0.5c-3.2-0.4-4.3,1.4-5.5,3c-2,1.6-3.9,3.5-5.5,5.5
		c-1.9,1.5-3.5,3.1-5,5c0,0.2,0,0.3,0,0.5c-2,1.6-3.9,3.5-5.5,5.5c-1.9,6.3-2.3,14-3.5,21c-7.3-4.5-13.7-10.5-21-16
		c-7-5.3-15.9-9.7-21.5-16c-3.2-3.5-4.2-8.4-8-11.5c-9.9,0-11.7-7.9-16-13.5c10.7,5.1,25.5,6.2,41.5,6c5.7-6.7,14.4-14.3,20-22.5
		c5.5-8,9.4-16.8,8-31c0-3.2,0-6.3,0-9.5c0-7.2,0-14.3,0-21.5c-0.3-5.2,0.7-11.7-0.5-16c0-10.3,0-20.7,0-31c2.3-3.6,8.1-5.4,9.5-9.5
		c1.1-3.3,0.6-9,1-13.5c2.6-31,5-65.5,8-94.5c11.5,0.4,24.3,0.5,34.5,1c3.7,0.2,8,1.4,11.5,0c7.2-2.9,6.4-17.6,19-13.5
		c0.7,1.1,3.5,0.2,5,0.5C569.1,330.7,572.3,330.7,575.5,330.7z"/>
	<g class="st7">
		<path class="st8" d="M537.6,488.4v2.7h-32.2v-2.7H537.6z M532.6,478.3c0,1-0.2,1.9-0.7,2.8c-0.5,0.9-1.2,1.6-2.1,2.2
			c-0.9,0.6-2.1,1.1-3.5,1.5c-1.4,0.3-3,0.5-4.8,0.5c-1.9,0-3.5-0.2-4.8-0.5c-1.4-0.3-2.5-0.8-3.5-1.5s-1.6-1.4-2.1-2.2
			c-0.5-0.9-0.7-1.8-0.7-2.8s0.2-2,0.7-2.8c0.5-0.9,1.2-1.6,2.1-2.3s2.1-1.1,3.5-1.5c1.4-0.4,3-0.5,4.8-0.5c1.8,0,3.4,0.2,4.8,0.5
			c1.4,0.4,2.6,0.9,3.5,1.5c0.9,0.6,1.6,1.4,2.1,2.3C532.4,476.3,532.6,477.3,532.6,478.3z M533,504.6h-22.4v-10.3h3.2v7.5H533
			V504.6z M529.1,478.3c0-0.6-0.1-1.2-0.4-1.7c-0.3-0.5-0.8-1-1.4-1.4c-0.6-0.4-1.4-0.7-2.3-1c-0.9-0.2-2.1-0.4-3.4-0.4
			s-2.5,0.1-3.5,0.4c-1,0.2-1.8,0.6-2.4,1c-0.6,0.4-1.1,0.9-1.4,1.4c-0.3,0.5-0.4,1.1-0.4,1.7c0,0.6,0.1,1.1,0.4,1.6
			c0.3,0.5,0.8,1,1.4,1.4c0.6,0.4,1.4,0.7,2.4,0.9c1,0.2,2.1,0.3,3.5,0.3s2.5-0.1,3.4-0.3c0.9-0.2,1.7-0.5,2.3-0.9
			c0.6-0.4,1.1-0.8,1.4-1.4C528.9,479.5,529.1,478.9,529.1,478.3z"/>
		<path class="st8" d="M543.3,487.4l-0.1-10.4h3.1l0.1,10.4h3.8c0.3,0,0.6,0,0.9,0s0.6,0,0.9,0l0.2-10.3h3.1l-0.2,10.2
			c1.1-0.1,2.2-0.2,3.3-0.3c1.1-0.1,2.1-0.3,3.1-0.6v2.6c-1.5,0.4-3.2,0.7-5.2,0.9c-1.9,0.2-3.9,0.2-5.9,0.2h-11.1v-2.7H543.3z
			 M539.9,475.6v-2.7h18.5v2.7H539.9z M567.2,499.2c0,1.9-0.9,3.4-2.8,4.5c-1.9,1.2-4.7,1.8-8.4,1.8c-3.7,0-6.5-0.6-8.3-1.8
			c-1.9-1.2-2.8-2.7-2.8-4.6c0-1.8,0.9-3.4,2.8-4.6c1.9-1.2,4.6-1.8,8.3-1.8c3.7,0,6.6,0.6,8.4,1.8
			C566.2,495.8,567.2,497.3,567.2,499.2z M563.8,499.2c0-0.5-0.2-1-0.5-1.4c-0.3-0.4-0.8-0.8-1.4-1.2c-0.7-0.3-1.5-0.6-2.5-0.8
			c-1-0.2-2.2-0.3-3.5-0.3c-2.7,0-4.7,0.4-5.9,1.1c-1.3,0.7-1.9,1.6-1.9,2.6c0,1,0.6,1.8,1.9,2.5c1.3,0.7,3.3,1,5.9,1
			c2.7,0,4.7-0.3,6-1C563.2,501,563.8,500.2,563.8,499.2z M558.2,479.2v-2.6h5.4v-5.3h3.2v21.1h-3.2v-7.8h-5.4V482h5.5v-2.8H558.2z"
			/>
		<path class="st8" d="M594.2,487.8c0.1-1,0.3-2,0.4-3s0.3-2.1,0.4-3.2c0.1-1.1,0.2-2.1,0.2-3.1c0.1-1,0.1-2,0.1-2.9h-18.8v-2.7
			h22.1c0,1.3,0,2.6-0.1,3.9c-0.1,1.4-0.2,2.7-0.3,4c-0.1,1.3-0.3,2.6-0.4,3.8c-0.1,1.2-0.3,2.3-0.4,3.3h5.9v2.7h-13.8V505h-3.3
			v-14.5h-14.4v-2.7H594.2z"/>
	</g>
</g>
<g id="광진구">
	<path id="Gwangjin-gu" class="st9" d="M968.6,871.3c2.3-14.5,7.2-26.5,7.5-43c8.8-11.9,18.3-21.8,24-37c5.8-15.4,6.2-33.6,11-51
		c2.2-8,6.8-15.7,10-23.5c3.4-8.3,5.8-16.8,10-23.5c13.1-2.4,26.5,0.7,38-2.5c10.4-2.9,19.3-13.6,34.5-10.5c3.6-0.8,1.4,4.3,2,6.5
		c-1.8,8.6-12.3,15.2-13,24c-0.4,5.3,4.1,11.8,5.5,17.5c2,8.5-0.2,18.5,5.5,24c2.2,0,4.3,0,6.5,0c1.7,1.2,5.5,0.2,8,0.5
		c2.8,0,5.7,0,8.5,0c-2.7,6.5-4.3,12.6-5.5,20c-1.1,6.9-1.3,15.4-3.5,22.5c-2.1,6.7-7.5,15.2-11.5,23c-4,7.7-9.9,14.1-14.5,20
		c-4.7,6-10.1,12.1-15.5,19c-4.6,5.9-10.4,16.4-15.5,19c-6.9,3.4-16.1,3.6-25,4c-2.3,0-4.7,0-7,0c-3.3,0-6.7,0-10,0
		c-1.5,0.3-4.3-0.6-5,0.5C995.1,881.1,980.3,877.8,968.6,871.3z"/>
	<g class="st7">
		<path class="st8" d="M1007,795.4h7.3v-7.2h3.3v7.1c2.1-0.1,4.2-0.2,6.3-0.3c2.1-0.1,4-0.3,5.6-0.5v2.7c-1.2,0.2-2.5,0.3-3.9,0.5
			c-1.4,0.1-2.9,0.2-4.4,0.3c-1.5,0.1-3,0.2-4.5,0.2c-1.5,0-2.9,0.1-4.2,0.1h-5.5V795.4z M1026.1,780.9c0,0.9-0.1,1.9-0.1,2.9
			c-0.1,1-0.1,2-0.2,3.1c-0.1,1-0.2,2-0.4,3c-0.1,1-0.3,1.9-0.5,2.7h-3.1c0.3-1.5,0.6-3,0.8-4.5c0.2-1.5,0.3-3,0.4-4.5h-13.5v-2.7
			H1026.1z M1034.5,807.1c0,1.9-0.9,3.4-2.8,4.6c-1.9,1.2-4.7,1.8-8.3,1.8c-1.8,0-3.5-0.2-4.9-0.5c-1.4-0.3-2.6-0.8-3.5-1.3
			c-0.9-0.6-1.6-1.2-2.1-2c-0.5-0.8-0.7-1.7-0.7-2.6c0-0.9,0.2-1.8,0.7-2.6c0.5-0.8,1.2-1.5,2.1-2s2.1-1,3.5-1.3
			c1.4-0.3,3-0.5,4.9-0.5c1.8,0,3.5,0.2,4.9,0.5c1.4,0.3,2.6,0.8,3.5,1.4c0.9,0.6,1.6,1.3,2.1,2.1
			C1034.2,805.4,1034.5,806.2,1034.5,807.1z M1031.1,807.2c0-0.5-0.2-1-0.5-1.4s-0.8-0.9-1.4-1.2c-0.6-0.3-1.5-0.6-2.5-0.8
			c-1-0.2-2.2-0.3-3.5-0.3c-1.3,0-2.5,0.1-3.5,0.3c-1,0.2-1.8,0.5-2.5,0.8c-0.6,0.3-1.1,0.7-1.4,1.2s-0.5,0.9-0.5,1.4
			c0,1,0.6,1.9,1.9,2.6c1.3,0.7,3.3,1.1,6,1.1c2.7,0,4.7-0.4,6-1.1S1031.1,808.2,1031.1,807.2z M1031,800.5v-21.1h3.2v9h4.9v2.8
			h-4.9v9.2H1031z"/>
		<path class="st8" d="M1054.5,790.7c0.5,0.6,1,1.2,1.7,1.7c0.6,0.6,1.3,1.1,1.9,1.6c0.7,0.5,1.3,1,2,1.4c0.7,0.4,1.4,0.8,2,1.1
			l-2,2.4c-1.3-0.7-2.6-1.6-3.9-2.6c-1.3-1-2.5-2.1-3.5-3.3c-1.4,1.5-3,2.9-4.8,4.1c-1.8,1.2-3.6,2.2-5.6,3.1l-2-2.4
			c2-0.8,3.8-1.8,5.4-2.8s3-2.2,4.1-3.3c1.2-1.2,2.1-2.4,2.8-3.6c0.7-1.2,1.2-2.5,1.5-3.7c-1.4,0-2.7,0.1-4.1,0.1
			c-1.3,0-2.7,0-4.1,0h-3.2v-2.7h5.5c1.6,0,3.2,0,4.8,0c1.6,0,3.3,0,5-0.1c-0.2,1.8-0.6,3.4-1.3,4.9
			C1056.2,787.9,1055.4,789.4,1054.5,790.7z M1069.1,812.6h-21.5v-9.4h3.3v6.6h18.2V812.6z M1065.2,779.5h3.2v25.2h-3.2V779.5z"/>
		<path class="st8" d="M1095.7,795.9c0.1-1,0.3-2,0.4-3c0.1-1.1,0.3-2.1,0.4-3.2c0.1-1.1,0.2-2.1,0.2-3.1s0.1-2,0.1-2.9h-18.8v-2.7
			h22.1c0,1.3,0,2.6-0.1,3.9c-0.1,1.4-0.2,2.7-0.3,4c-0.1,1.3-0.3,2.6-0.4,3.8c-0.1,1.2-0.3,2.3-0.4,3.3h5.9v2.7h-13.8V813h-3.3
			v-14.5h-14.4v-2.7H1095.7z"/>
	</g>
</g>
<g id="강동구">
	<path id="Gangdong-gu" class="st11" d="M1169.1,741.3c5.7-6.8,13.4-10.1,22-15.5c8.9-5.6,14.2-12.9,26.5-13
		c10.7-0.3,22.7,0.7,32.5-0.5c18.5-4.4,29.4-16.4,44-25c8.8-5.2,20-8.9,28.5-14c0,1.7,0,3.3,0,5c0.3,2.5-0.7,6.3,0.5,8
		c-0.3,11.1,11,10.6,17,15.5c1.5,1.2,5.2,0.2,7.5,0.5c1.1,7.1,1.5,14.9,4.5,20c-1.9,10.4-10.9,19.7-9.5,32c0.4,3.8,5.1,8.3,6,13.5
		c1.2,6.4-0.7,13.8,0.5,19.5c0.8,3.6,4.4,6.4,5,9.5c-2.7,4.8-5,10-8,14.5c-14.1,3.8-27.1,8.6-43.5,14c-6.7,2.2-13.9,4.6-21.5,7
		c-6.2,2-18.7,4.1-21.5,7.5c-2.2,2.7-1.7,10.1-2,16c-0.3,5.5-0.1,11.7-0.5,16c-0.5,5.5-4.3,10-7,14.5c-7.2,11.9-13.2,21.1-20.5,33
		c-5.3-1.8-9.1-0.5-13.5-2.5c-4.6-2.1-6.7-7.5-11-9c-6-2-13-0.4-21-2c-4.6-8.1-5.5-17.8-10.5-25c-4.1-5.9-11.8-7.9-15.5-14
		c5.2-14.6,16.5-35.2,7-51c-3.8-0.7-7.9-1.1-12.5-1c-3.3-2.9-5.5-6.9-8.5-10c4-21.1,4.6-45.7,18.5-57
		C1165,745.8,1167.2,743.7,1169.1,741.3z"/>
	<g class="st7">
		<path class="st8" d="M1214.7,771.6c-1.5,0-2.9,0.1-4.4,0.1c-1.5,0-2.9,0-4.4,0h-3.2v-2.7h5.4c1.7,0,3.5,0,5.2,0s3.5,0,5.2-0.1
			c-0.1,2-0.6,4-1.4,5.8c-0.8,1.8-1.8,3.6-3.1,5.1s-2.9,3-4.8,4.2c-1.9,1.2-4,2.2-6.4,2.9l-1.9-2.5c3.9-1.2,7.1-2.8,9.5-5
			C1212.6,777.3,1214.1,774.6,1214.7,771.6z M1227.3,794.7c0,1-0.2,1.9-0.7,2.7c-0.5,0.8-1.1,1.6-2.1,2.2c-0.9,0.6-2.1,1.1-3.4,1.4
			c-1.4,0.3-2.9,0.5-4.7,0.5c-1.8,0-3.4-0.2-4.8-0.5c-1.4-0.3-2.5-0.8-3.4-1.4c-0.9-0.6-1.6-1.3-2.1-2.2c-0.5-0.8-0.7-1.8-0.7-2.7
			c0-1,0.2-1.9,0.7-2.7c0.5-0.8,1.1-1.5,2.1-2.2c0.9-0.6,2.1-1.1,3.4-1.4c1.4-0.3,2.9-0.5,4.8-0.5c1.8,0,3.4,0.2,4.7,0.5
			c1.4,0.3,2.5,0.8,3.4,1.4c0.9,0.6,1.6,1.3,2.1,2.2C1227.1,792.8,1227.3,793.7,1227.3,794.7z M1224,794.7c0-0.5-0.1-1.1-0.4-1.6
			s-0.8-0.9-1.4-1.3s-1.4-0.7-2.4-0.9s-2.1-0.4-3.4-0.4c-1.3,0-2.4,0.1-3.4,0.4s-1.8,0.5-2.4,0.9s-1.1,0.8-1.4,1.3s-0.5,1-0.5,1.6
			c0,0.5,0.2,1.1,0.5,1.6s0.8,0.9,1.4,1.3s1.4,0.7,2.4,0.9c1,0.2,2.1,0.3,3.4,0.3c1.3,0,2.5-0.1,3.4-0.3c0.9-0.2,1.7-0.5,2.4-0.9
			s1.1-0.8,1.4-1.3S1224,795.2,1224,794.7z M1232.3,779h-5.3v8.4h-3.2v-19.9h3.2v8.7h5.3V779z"/>
		<path class="st8" d="M1265.2,786.8H1233v-2.7h14.5v-4.3h-9.1v-11.4h21.6v2.8h-18.4v5.9h18.8v2.7h-9.7v4.3h14.5V786.8z
			 M1260.6,795.2c0,1.9-1,3.4-2.9,4.6s-4.8,1.8-8.6,1.8c-1.9,0-3.6-0.2-5-0.5c-1.4-0.3-2.7-0.8-3.6-1.3c-1-0.6-1.7-1.2-2.2-2
			c-0.5-0.8-0.7-1.6-0.7-2.6c0-1.8,1-3.3,2.9-4.5c1.9-1.1,4.8-1.7,8.7-1.7c3.8,0,6.7,0.6,8.6,1.7
			C1259.7,791.9,1260.6,793.4,1260.6,795.2z M1257.2,795.2c0-0.4-0.1-0.9-0.4-1.3c-0.3-0.4-0.7-0.8-1.4-1.1s-1.5-0.6-2.5-0.8
			c-1-0.2-2.3-0.3-3.8-0.3c-1.5,0-2.8,0.1-3.8,0.3c-1,0.2-1.9,0.5-2.5,0.8c-0.6,0.3-1.1,0.7-1.4,1.1c-0.3,0.4-0.4,0.9-0.4,1.3
			c0,0.5,0.1,0.9,0.4,1.4c0.3,0.4,0.7,0.8,1.4,1.2c0.6,0.3,1.5,0.6,2.5,0.8s2.3,0.3,3.8,0.3c1.5,0,2.8-0.1,3.8-0.3s1.9-0.5,2.5-0.8
			c0.6-0.3,1.1-0.7,1.4-1.2C1257.1,796.1,1257.2,795.7,1257.2,795.2z"/>
		<path class="st8" d="M1288.9,783.9c0.1-1,0.3-2,0.4-3c0.1-1.1,0.3-2.1,0.4-3.2c0.1-1.1,0.2-2.1,0.2-3.1c0.1-1,0.1-2,0.1-2.9h-18.8
			v-2.7h22.1c0,1.3,0,2.6-0.1,3.9s-0.2,2.7-0.3,4c-0.1,1.3-0.3,2.6-0.4,3.8c-0.1,1.2-0.3,2.3-0.4,3.3h5.9v2.7h-13.8V801h-3.3v-14.5
			h-14.4v-2.7H1288.9z"/>
	</g>
</g>
<g id="송파구">
	<path id="Songpa-gu" class="st12" d="M1142.1,808.3c3.3,2.5,5.5,6.2,8,9.5c3.9,0.4,8,0.7,12.5,0.5c6.4,10.4,0.7,26.4-3.5,37.5
		c-1.5,4-4.9,9.2-4.5,12c0.8,5.8,13.7,9.9,16,15c4.3,8.2,6.9,18.1,12,25.5c6,2,14.3,1.7,21.5,2.5c5.8,5.9,12.4,10.9,23.5,11.5
		c-2.8,6.3-6.5,11-10.5,17.5c-2.3,3.7-10.2,13.9-9.5,19c0.6,4.3,7.2,5,8.5,10c1.5,5.7-1.1,8.3,0,15.5c10.1,14.6,33.9,15.5,51.5,22.5
		c2.2,1.2,6.5,0.2,9.5,0.5c1.2,3.5,0.2,9.2,0.5,13.5c-11.9,3.6-17.8,8.7-21,20.5c-2.3,8.5-1.1,19.4-4,27.5c-2.3,6.3-7.4,9.6-10,14.5
		c-5.8,2.7-12.6,1.4-16.5,5c-2.1,1.9-5.5,12.2-7,17.5c-1.1,3.8,1.2,8.8,0.5,12c-0.8,3.7-5.1,5.7-7,8c-2.5,0.3-6.3-0.7-8,0.5
		c-7.4,0.8-13.5-1.4-18,1c-3.7,2-5.5,9.7-7.5,14c-2.6,5.7-4.7,10.7-7,14.5c-5.9-14.5-13.6-28.2-22-40.5c-2.9-4.2-7.1-8.3-8.5-12.5
		c-3.8-11.2-2.2-24.1-6.5-36.5c-9.5-7.2-20.6-12.8-30-20c-1.5-4.4-2.5-9.1-4-13.5c-2.8-3.2-5.8-6.2-9-9c-13.1-4-29.4-3.4-41.5-7.5
		c-4.1-1.4-8.6-4.8-13-7c-10-5-16.2-8.3-24-14.5c-3.4-2.7-8-5.9-10-8.5c-4.1-5.5-5.6-12.7-9.5-19.5c-0.3-2.2,0.7-5.7-0.5-7
		c0-2.8,0-5.7,0-8.5c0-3.3,0-6.7,0-10c-0.3-1.8,0.6-5-0.5-6c0-3,0-6,0-9c0-3.3,0-6.7,0-10c-0.3-1.8,0.6-5-0.5-6c0-0.8,0-1.7,0-2.5
		c3.8,0.7,7.3,1.7,12,1.5c2.3,0,4.7,0,7,0c3.3,0,6.7,0,10,0c1.5-0.3,4.3,0.6,5-0.5c4.5,0,9,0,13.5,0c1.7-0.3,4.6,0.6,5.5-0.5
		c8.6-2.1,18.4-2.6,27-6c7.6-3,11.2-8.8,16-15c8.3-10.8,16.4-21.1,24.5-31.5c5.5-7.1,12.1-13.7,16-21
		C1134,825.8,1137.6,816.1,1142.1,808.3z"/>
	<g class="st7">
		<path class="st8" d="M1087.3,964.8v4.8h14.4v2.7h-32.2v-2.7h14.5v-4.8H1087.3z M1086.9,957.2c0.5,0.8,1.2,1.5,2.1,2.2
			s1.9,1.3,3,1.9c1.1,0.6,2.3,1,3.5,1.4c1.2,0.4,2.4,0.7,3.5,0.8l-1.7,2.6c-2.4-0.5-4.7-1.3-6.8-2.4c-2.1-1.2-3.8-2.5-5.2-4
			c-0.7,0.8-1.5,1.6-2.4,2.3c-0.9,0.7-1.9,1.4-2.9,2c-1,0.6-2.1,1.1-3.2,1.5c-1.1,0.4-2.2,0.7-3.2,0.9l-1.7-2.5
			c1.8-0.3,3.4-0.8,4.9-1.5s2.9-1.5,4-2.4c1.1-0.9,2-2,2.7-3.1s0.9-2.3,0.9-3.6h3.4c0,0.7,0,1.3-0.2,2
			C1087.4,955.9,1087.2,956.5,1086.9,957.2z M1097,981.1c0,0.9-0.2,1.7-0.7,2.5c-0.5,0.8-1.2,1.4-2.2,2c-1,0.6-2.2,1-3.6,1.3
			c-1.4,0.3-3.1,0.5-5,0.5c-1.9,0-3.6-0.2-5-0.5c-1.4-0.3-2.6-0.8-3.6-1.3c-1-0.6-1.7-1.2-2.2-2c-0.5-0.8-0.7-1.6-0.7-2.5
			s0.2-1.7,0.7-2.4c0.5-0.7,1.2-1.4,2.2-1.9c1-0.5,2.2-1,3.6-1.3c1.4-0.3,3.1-0.4,5-0.4c1.9,0,3.5,0.1,5,0.4
			c1.4,0.3,2.6,0.7,3.6,1.3c1,0.5,1.7,1.2,2.2,1.9C1096.8,979.4,1097,980.2,1097,981.1z M1093.6,981.1c0-0.4-0.1-0.8-0.4-1.3
			c-0.3-0.4-0.7-0.8-1.3-1.1s-1.5-0.6-2.5-0.8c-1-0.2-2.3-0.3-3.8-0.3c-1.5,0-2.8,0.1-3.8,0.3c-1,0.2-1.9,0.5-2.5,0.8
			s-1.1,0.7-1.3,1.1c-0.3,0.4-0.4,0.9-0.4,1.3c0,0.4,0.1,0.9,0.4,1.3c0.3,0.4,0.7,0.8,1.3,1.2c0.6,0.3,1.5,0.6,2.5,0.8
			c1,0.2,2.3,0.3,3.8,0.3c1.5,0,2.8-0.1,3.8-0.3c1-0.2,1.8-0.5,2.5-0.8c0.6-0.3,1.1-0.7,1.3-1.2
			C1093.5,982,1093.6,981.5,1093.6,981.1z"/>
		<path class="st8" d="M1106.5,975l-0.3-14.9h3.1l0.3,14.9h3.7c0.4,0,0.9,0,1.4,0c0.5,0,0.9,0,1.4,0l0.2-14.8h3.1l-0.2,14.7
			c0.9-0.1,1.9-0.2,2.8-0.3c0.9-0.1,1.8-0.3,2.6-0.5v2.7c-1.5,0.4-3.2,0.7-5.2,0.9s-3.9,0.2-5.9,0.2h-10.9V975H1106.5z M1103,958.8
			v-2.7h19v2.7H1103z M1135,968.3h-5.8V987h-3.2v-33.8h3.2v12.2h5.8V968.3z"/>
		<path class="st8" d="M1158.3,969.7c0.1-1,0.3-2,0.4-3s0.3-2.1,0.4-3.2c0.1-1.1,0.2-2.1,0.2-3.1c0.1-1,0.1-2,0.1-2.9h-18.8v-2.7
			h22.1c0,1.3,0,2.6-0.1,3.9s-0.2,2.7-0.3,4c-0.1,1.3-0.3,2.6-0.4,3.8c-0.1,1.2-0.3,2.3-0.4,3.3h5.9v2.7h-13.8v14.5h-3.3v-14.5
			h-14.4v-2.7H1158.3z"/>
	</g>
</g>
<g id="강남구">
	<path id="Gangnam-gu" class="st12" d="M809.5,885.3c3.3-3.5,7.2-6.2,11-9.5c3.6-3.1,6.8-7.9,11-9.5c3.1-1.2,8.5-1.3,12.5-2
		c10.1-1.8,17.6-2.2,29-1.5c16,0.9,26.1,3.2,37,8c26.4,11.7,47.6,32.8,78.5,36c1.1,2.6,0.2,7.1,0.5,10.5c0,3.3,0,6.7,0,10
		c0.3,2-0.7,5.3,0.5,6.5c0,2.8,0,5.7,0,8.5c0,3.3,0,6.7,0,10c0.3,1.8-0.6,5,0.5,6c-1.1,9.7,2.5,13.1,5.5,19c2,4,3.2,8.6,5,11
		c2.1,2.9,7.3,6,11,9c3.9,3.1,7.4,6.7,11.5,9c4,2.3,9.2,4.1,14,6.5c4.6,2.3,9.2,5.8,13.5,7c12.2,3.6,27.7,3.4,39.5,7
		c2.6,3.3,5.9,5.7,8.5,9c1.4,4.3,2.2,9.1,4,13c9.6,7.1,20.7,12.7,30,20c0.9,6.3,2.1,12.2,3,18c1,6,1,12.7,3,18
		c1.1,2.9,4.4,6.8,6.5,10c9.5,14.2,19.1,27.8,25,44.5c-5.5,2-14.3-0.6-20,2c-4.9,2.3-6,10.9-10,16c-2.1,2.6-7.5,6.9-11,8
		c-5.7,1.8-12.6,0.2-18,1.5c-4.3,1-7.1,4.7-11,5.5c-4.4,0.8-9-1-15-0.5c-5-4.3-7-10.3-12.5-15c-4.3-3.7-10.5-5.3-14.5-9
		c-2.6-2.4-9.1-11.5-10.5-15.5c0-2.7,0-5.3,0-8c-0.3-1.5,0.6-4.3-0.5-5c0.4-4.4-0.7-7.3-0.5-11.5c-4.4-2.9-7.6-7.5-13-9.5
		c-14.9-5.5-33.7,0.5-46,6c-4.5,7.3-8.5,15.1-14,21.5c-16.3,0.3-28.3,5.1-40.5,9.5c-12.8-17.6-15.1-45.5-21-70
		c-5-5.4-10.1-10.5-15.5-15.5c-6.8-3.2-15-5-20-10c-2.3-2.7-4.8-5.2-7.5-7.5c-0.2-0.7-0.9-0.8-1-1.5c-2.1-2.5-4.5-4.9-7-7
		c-7.2-7.6-6.8-23.2-8-38.5c-0.6-7.8,0-16.9-2-23c-2.2-6.6-12.9-11-15.5-18c-2-5.4-1.9-13.1-3-19.5c-1.1-6.9-1.7-14.9-3.5-20.5
		c-2.1-6.8-7-12.9-10-19C815.6,898.5,812.6,891.9,809.5,885.3z"/>
	<g class="st7">
		<path class="st8" d="M934.1,1027.9c-1.5,0-2.9,0.1-4.4,0.1c-1.5,0-2.9,0-4.4,0h-3.2v-2.7h5.4c1.7,0,3.5,0,5.2,0
			c1.7,0,3.5,0,5.2-0.1c-0.1,2-0.6,4-1.4,5.8c-0.8,1.8-1.8,3.6-3.1,5.1s-2.9,3-4.8,4.2c-1.9,1.2-4,2.2-6.4,2.9l-1.9-2.5
			c3.9-1.2,7.1-2.8,9.5-5C932.1,1033.6,933.5,1031,934.1,1027.9z M946.7,1051c0,1-0.2,1.9-0.7,2.7c-0.5,0.8-1.1,1.6-2.1,2.2
			c-0.9,0.6-2.1,1.1-3.4,1.4c-1.4,0.3-2.9,0.5-4.7,0.5c-1.8,0-3.4-0.2-4.8-0.5c-1.4-0.3-2.5-0.8-3.4-1.4c-0.9-0.6-1.6-1.3-2.1-2.2
			c-0.5-0.8-0.7-1.8-0.7-2.7c0-1,0.2-1.9,0.7-2.7c0.5-0.8,1.1-1.5,2.1-2.2s2.1-1.1,3.4-1.4c1.4-0.3,2.9-0.5,4.8-0.5
			c1.8,0,3.4,0.2,4.7,0.5c1.4,0.3,2.5,0.8,3.4,1.4c0.9,0.6,1.6,1.3,2.1,2.2C946.5,1049.1,946.7,1050,946.7,1051z M943.4,1051
			c0-0.5-0.1-1.1-0.4-1.6c-0.3-0.5-0.8-0.9-1.4-1.3s-1.4-0.7-2.4-0.9c-1-0.2-2.1-0.4-3.4-0.4c-1.3,0-2.4,0.1-3.4,0.4
			c-1,0.2-1.8,0.5-2.4,0.9s-1.1,0.8-1.4,1.3c-0.3,0.5-0.5,1-0.5,1.6c0,0.5,0.2,1.1,0.5,1.6c0.3,0.5,0.8,0.9,1.4,1.3s1.4,0.7,2.4,0.9
			c1,0.2,2.1,0.3,3.4,0.3c1.3,0,2.5-0.1,3.4-0.3c0.9-0.2,1.7-0.5,2.4-0.9s1.1-0.8,1.4-1.3C943.3,1052.1,943.4,1051.6,943.4,1051z
			 M951.7,1035.3h-5.3v8.4h-3.2v-19.9h3.2v8.7h5.3V1035.3z"/>
		<path class="st8" d="M961.8,1040.5h-7.4v-15.6h3.3v12.8h4.6c2.5,0,4.8-0.2,6.8-0.5c2.1-0.3,3.8-0.6,5.1-0.9v2.7
			c-0.7,0.2-1.6,0.4-2.5,0.6c-1,0.2-2,0.3-3.1,0.5c-1.1,0.1-2.2,0.2-3.4,0.3C964,1040.5,962.9,1040.5,961.8,1040.5z M979.4,1057.1
			h-20.7v-12.4h20.7V1057.1z M976.2,1047.5h-14.4v6.8h14.4V1047.5z M984.7,1034.8h-5.3v7.9h-3.2v-18.9h3.2v8.2h5.3V1034.8z"/>
		<path class="st8" d="M1008.3,1040.2c0.1-1,0.3-2,0.4-3c0.1-1.1,0.3-2.1,0.4-3.2c0.1-1.1,0.2-2.1,0.2-3.1s0.1-2,0.1-2.9h-18.8v-2.7
			h22.1c0,1.3,0,2.6-0.1,3.9c-0.1,1.4-0.2,2.7-0.3,4c-0.1,1.3-0.3,2.6-0.4,3.8c-0.1,1.2-0.3,2.3-0.4,3.3h5.9v2.7h-13.8v14.5h-3.3
			v-14.5h-14.4v-2.7H1008.3z"/>
	</g>
</g>
<g id="서초구">
	<path id="Seocho-gu" class="st13" d="M806.5,888.3c4.8,12.3,15.3,23.7,19.5,37.5c1.8,5.9,2.4,13.5,3.5,20c1.2,6.8,0.6,14.9,3,20.5
		c2.9,6.9,13.4,11.1,15.5,17.5c2.1,6.5,0.9,16,1.5,24c1.3,16.7,2,32.6,11,41c2.1,2.5,4.5,4.9,7,7c2.3,2.7,4.8,5.2,7.5,7.5
		c5.2,4.4,13.2,5.9,19,9.5c4.8,5.2,9.8,10.2,15,15c6.2,25,8.6,53.8,22.5,71c12.6-3.8,27.6-9.4,44.5-10.5c2.5-3.2,4.8-6.4,7.5-10.5
		c2.1-3.3,3.5-8.5,7-11c7.9-5.5,30.5-10.4,42.5-5.5c3.7,1.5,5.7,5.7,9,7c1.2,0.8,1.1,2.9,1,5c0.3,1.5-0.6,4.3,0.5,5
		c0,2.2,0,4.3,0,6.5c0.3,2.5-0.7,6.3,0.5,8c0,0.7,0,1.3,0,2c3.6,5.4,8.1,9.9,11.5,15.5c10.9,5.4,19.6,13.1,26,23
		c-5.5,3.4-17.7,2.8-21,8c-2.5,4,0.2,8.8-0.5,14c-0.8,5.5-5.8,10.6-5.5,15.5c-6.3,1.7-15.8,0.2-19.5,4.5c-2.9,8.2-3.2,16.2-10.5,20
		c-4.6,2.4-14.2,3.6-20.5,5c-5.9,1.4-17.1,2.2-20,5.5c-3.4,3.9-2.9,13.3-4,19c-1.3,7.1-2.8,12.8-4.5,18.5c-6.7,0-13.3,0-20,0
		c-8.3-0.6-14.8-2.8-23-3.5c-10-6.3-21.7-14.5-32.5-21.5c-3.9-2.5-12.4-4.8-11-10.5c0.8-1.8,0.8-7.2,0-9c-2.6-16.6-7.6-30.7-11.5-46
		c0-1.8,0-3.7,0-5.5c0-1.7,0-3.3,0-5c0-5.8,0-11.7,0-17.5c1.2-1.8,0.2-5.8,0.5-8.5c-0.3-3.7,0.7-8.7-0.5-11.5c0.7-8.9-8.2-7.6-15-9
		c-6-1.2-10.4-3.7-15.5-3c-4.7,0.7-11.4,6.8-16.5,10c-5.4,3.4-12.4,6.4-16.5,10c-7.1,6.3-11.4,16.1-17,20.5
		c-4.7,0.8-12.8,0.8-17.5,0c-5.7-5.1-1.1-14.5-2.5-22c-0.7-4-7.2-11-10-12c-2.2-0.8-8.8-1.7-13,0s-4.1,6.7-8,9.5
		c-12.3-15.4-19.4-35.9-29-54c-0.3-6.7,0.7-14.7-0.5-20.5c-4.7-15.2-4.1-29.4-1.5-47.5c1.4-9.7,2.5-19.5,4.5-27
		c1.1-4.1,4.2-8.1,4-12c-0.2-4.8-4.2-9.6-6-13.5c-2.2-4.9-3.7-9-6-13.5c-7.1-1.1-14.9-1.4-23-1.5c-1.6-5.4-2.9-11.1-4-17
		c19.9-0.5,35.9,1.3,50-4.5c6.6-2.7,13.4-10.8,19-16C772.4,924.5,790.7,906.4,806.5,888.3z"/>
	<g class="st7">
		<path class="st8" d="M762.2,1099.3l-2.3-2c1.5-1.1,2.9-2.3,4.2-3.7s2.4-3,3.3-4.8c0.9-1.8,1.5-3.9,2-6.1c0.4-2.3,0.5-4.8,0.4-7.6
			h3.4c0,1.6,0,3.2-0.1,4.6c-0.1,1.5-0.4,2.8-0.6,4.2c0.9,2.5,2.1,4.9,3.8,7c1.6,2.1,3.6,3.9,5.8,5.4l-2.1,2.4
			c-1.9-1.3-3.5-2.9-5-4.6c-1.5-1.8-2.7-3.8-3.8-6c-0.9,2.4-2.2,4.6-3.6,6.5C765.9,1096.2,764.2,1097.9,762.2,1099.3z M778.2,1087.3
			v-2.8h7.5v-11.6h3.2v33.8h-3.2v-19.4H778.2z"/>
		<path class="st8" d="M825.2,1102h-31.4v-2.7h14.5v-6.5h3.3v6.5h13.7V1102z M813.5,1086.5c1.4,0.9,2.9,1.7,4.5,2.4s3.3,1.4,5.2,2
			l-1.7,2.5c-1.9-0.7-3.7-1.5-5.5-2.4s-3.3-1.8-4.9-2.8c-1.8,1.1-3.8,2.2-6,3.1c-2.2,0.9-4.7,1.7-7.3,2.4l-1.4-2.6
			c2.4-0.6,4.5-1.3,6.3-1.9c1.8-0.7,3.5-1.4,4.9-2.2s2.7-1.6,3.8-2.4c1.1-0.8,2.1-1.7,3-2.7c-1.4,0.1-2.8,0.1-4.1,0.1s-2.7,0-4.1,0
			h-7.4v-2.7h10.4c1.6,0,3.2,0,4.8,0s3.3,0,5-0.1c-0.4,1.4-1.1,2.6-2.1,3.9C816.1,1084.3,814.9,1085.4,813.5,1086.5z M815.3,1073.9
			v2.7h-12.5v-2.7H815.3z"/>
		<path class="st8" d="M849.3,1089.3c0.1-1,0.3-2,0.4-3c0.1-1.1,0.3-2.1,0.4-3.2c0.1-1.1,0.2-2.1,0.2-3.1s0.1-2,0.1-2.9h-18.8v-2.7
			h22.1c0,1.3,0,2.6-0.1,3.9c-0.1,1.4-0.2,2.7-0.3,4c-0.1,1.3-0.3,2.6-0.4,3.8c-0.1,1.2-0.3,2.3-0.4,3.3h5.9v2.7h-13.8v14.5h-3.3
			V1092h-14.4v-2.7H849.3z"/>
	</g>
</g>
<g id="관악구">
	<path id="Gwanak-gu" class="st9" d="M694,1210.9c-4.5,4.5-9.5,9.3-15,14.5c-4.9,4.6-9.8,10.6-15.5,14.5c-5.6,3.8-12.7,6.8-20,11
		c-6.6,3.8-13.7,10.3-20,11.5c-4.6,0.9-10.1,0.3-15,0.5c-5,0.2-10.2,0.3-15.5,0.5c-8.4,0.3-23.3,2.3-31,1c-6-1-10.4-7.2-16.5-9.5
		c-4.2-6.3-3.5-20.2-8.5-25c-4.5-4.4-12.7-2.1-19.5-5c8.2-5.6-0.9-17.2-2-25.5c-3.9-2.2-8.6-3.8-13.5-5c-1.8-5.2-8.4-9.9-10-15.5
		c-1.6-5.4-1.6-13.4-2.5-20.5c-0.8-6.7-1.7-13.7-2.5-20.5c-2.6-21.1-3.9-39.9-4-58c-4.1-2.3-8.6-4.1-13-6c-2.1-4.1-4.8-7.5-6.5-12
		c11.1-1.4,18.9-12,27.5-14.5c11.1-3.2,22.6,0.2,31-7c2.2-5.4,4.1-11.2,6.5-16.5c6,0,12,0,18,0c4.7-0.3,10.7,0.7,14.5-0.5
		c6.7,0,13.3,0,20,0c8.2,0,16.3,0,24.5,0c10.9,4.1,21.9,8.1,32,13c4.1,15.6,8.2,31.1,12,47c8.9,7.1,17.4,14.6,26.5,21.5
		c2.7,1.2,7.5,0.2,11,0.5c1.8-0.3,5,0.6,6-0.5c9.9,1.4,14.1-5.6,20-6.5c-1.6,13.6,1.8,20.7,6,29c7.5,15,15.4,32.3,24,43.5
		c-3.7,0.9-8.2,1.2-11.5,2.5C718.8,1185.7,706.3,1198.2,694,1210.9z"/>
	<g class="st7">
		<path class="st8" d="M559.3,1140.6v7.4c2-0.1,4.1-0.2,6.2-0.3c2.1-0.1,3.9-0.3,5.6-0.5v2.6c-1.2,0.2-2.5,0.3-3.9,0.4
			c-1.4,0.1-2.9,0.2-4.4,0.3c-1.5,0.1-3,0.2-4.5,0.2c-1.5,0.1-2.9,0.1-4.2,0.1h-5.5v-2.7h7.4v-7.5H559.3z M568,1132.7
			c0,1-0.1,2-0.1,3.1c-0.1,1.1-0.1,2.2-0.2,3.3s-0.2,2.2-0.4,3.2c-0.1,1-0.3,2-0.5,2.9h-3.1c0.3-1.6,0.6-3.2,0.8-4.8
			c0.2-1.7,0.3-3.3,0.4-4.9h-13.5v-2.7H568z M576.3,1164h-22.1v-9.5h3.3v6.7h18.8V1164z M572.6,1156.8v-25.9h3.2v11.5h4.9v2.8h-4.9
			v11.5H572.6z"/>
		<path class="st8" d="M582.4,1140.1c0-1.2,0.2-2.3,0.6-3.4c0.4-1,1-1.9,1.8-2.7c0.8-0.8,1.7-1.4,2.7-1.8c1-0.4,2.2-0.7,3.4-0.7
			c1.2,0,2.4,0.2,3.4,0.7c1,0.4,2,1,2.7,1.8c0.8,0.8,1.4,1.7,1.8,2.7s0.7,2.1,0.7,3.4s-0.2,2.3-0.7,3.4c-0.4,1-1.1,1.9-1.8,2.7
			c-0.8,0.8-1.7,1.3-2.7,1.8c-1,0.4-2.2,0.7-3.4,0.7c-1.2,0-2.4-0.2-3.4-0.7c-1-0.4-1.9-1-2.7-1.8c-0.8-0.8-1.4-1.7-1.8-2.7
			C582.6,1142.5,582.4,1141.4,582.4,1140.1z M585.6,1140.1c0,0.8,0.1,1.6,0.4,2.3c0.3,0.7,0.6,1.3,1.1,1.8c0.5,0.5,1.1,0.9,1.7,1.2
			s1.4,0.4,2.2,0.4c0.8,0,1.6-0.1,2.2-0.4s1.2-0.7,1.7-1.2c0.5-0.5,0.9-1.1,1.1-1.8c0.3-0.7,0.4-1.4,0.4-2.3c0-0.8-0.1-1.6-0.4-2.3
			c-0.3-0.7-0.7-1.3-1.1-1.8c-0.5-0.5-1.1-0.9-1.7-1.2c-0.7-0.3-1.4-0.4-2.2-0.4c-0.8,0-1.5,0.1-2.2,0.4c-0.7,0.3-1.2,0.7-1.7,1.2
			c-0.5,0.5-0.9,1.1-1.1,1.8C585.7,1138.6,585.6,1139.3,585.6,1140.1z M605.1,1164.8v-9.6h-18.3v-2.7h21.5v12.4H605.1z
			 M613.7,1141.6h-5.3v8.9h-3.2v-19.6h3.2v7.9h5.3V1141.6z"/>
		<path class="st8" d="M637.3,1147.3c0.1-1,0.3-2,0.4-3s0.3-2.1,0.4-3.2s0.2-2.1,0.2-3.1c0.1-1,0.1-2,0.1-2.9h-18.8v-2.7h22.1
			c0,1.3,0,2.6-0.1,3.9c-0.1,1.4-0.2,2.7-0.3,4c-0.1,1.3-0.3,2.6-0.4,3.8c-0.1,1.2-0.3,2.3-0.4,3.3h5.9v2.7h-13.8v14.5h-3.3V1150
			h-14.4v-2.7H637.3z"/>
	</g>
</g>
<g id="동작구">
	<path id="Dongjak-gu" class="st9" d="M549.5,914.3c12.9,1.8,26.1,2.4,40.5,1.5c5.7-0.3,12.7,0.7,17.5-0.5c1.9,0,3.2-0.5,4.5-1
		c6.5,6.9,13,14.3,19.5,22c6.1,7.2,12.9,16.2,21.5,20.5c7.7,3.9,17.5,3,28,5.5c1.6,6.6,2.6,13.7,5,19.5c6.7,1.6,15.9,0.7,23,2
		c4.2,7.8,7.7,16.3,11.5,24.5c-4.2,11.3-7.7,25.4-9.5,41c-2,17.5-1.9,31.9,2,45c-7.7,3.6-13.8,8.8-27,7c-3,0-6,0-9,0
		c-4.3-3-8.1-6.4-12.5-10c-3.6-3-9.8-6.3-12-10.5c-3.5-6.6-4-16.2-6-24c-2-8-4.4-15.6-6.5-23.5c-12.5-4.5-23.6-10.5-37-14
		c-7.8,0-15.7,0-23.5,0c-4.8,0.3-11-0.7-15,0.5c-6.7,0-13.3,0-20,0c-5.5,0.3-12.3-0.7-17,0.5c-4.7,4.1-5.1,12.6-8.5,18
		c-8.2,6.1-19.5,2.9-29.5,6c-9.4,3-16.7,13.8-26.5,13.5c1.2-7.5,2.1-15.2,3.5-22.5c4.8-3.2,7.6-8.9,13.5-11.5
		c8.8-3.9,20.2-3.8,30.5-7c2.5-9,8.1-16.4,10-25.5c1.8-8.5-0.2-17.1,1.5-26.5c0.6-3.5,3.3-7.2,5-11
		C533.6,939,541.5,925.2,549.5,914.3z"/>
	<g class="st7">
		<path class="st8" d="M586.3,989.2h-32.3v-2.7h14.5v-4.3h-9.1v-11.4h21.6v2.8h-18.4v5.9h18.8v2.7h-9.7v4.3h14.5V989.2z
			 M581.7,997.6c0,1.9-1,3.4-2.9,4.6c-1.9,1.2-4.8,1.8-8.6,1.8c-1.9,0-3.6-0.2-5-0.5c-1.4-0.3-2.7-0.8-3.6-1.3c-1-0.6-1.7-1.2-2.2-2
			c-0.5-0.8-0.7-1.6-0.7-2.6c0-1.8,1-3.3,2.9-4.5c1.9-1.1,4.8-1.7,8.7-1.7c3.8,0,6.7,0.6,8.6,1.7
			C580.8,994.3,581.7,995.8,581.7,997.6z M578.3,997.6c0-0.4-0.1-0.9-0.4-1.3c-0.3-0.4-0.7-0.8-1.4-1.1s-1.5-0.6-2.5-0.8
			c-1-0.2-2.3-0.3-3.8-0.3c-1.5,0-2.8,0.1-3.8,0.3c-1,0.2-1.9,0.5-2.5,0.8c-0.6,0.3-1.1,0.7-1.4,1.1c-0.3,0.4-0.4,0.9-0.4,1.3
			c0,0.5,0.1,0.9,0.4,1.4c0.3,0.4,0.7,0.8,1.4,1.2c0.6,0.3,1.5,0.6,2.5,0.8c1,0.2,2.3,0.3,3.8,0.3c1.5,0,2.8-0.1,3.8-0.3
			s1.9-0.5,2.5-0.8c0.6-0.3,1.1-0.7,1.4-1.2C578.2,998.5,578.3,998.1,578.3,997.6z"/>
		<path class="st8" d="M601.9,979.7c0.9,1.2,2.1,2.3,3.4,3.3c1.3,1,2.6,1.9,3.9,2.5l-2.1,2.3c-1.3-0.7-2.5-1.6-3.7-2.6
			c-1.2-1-2.3-2.1-3.3-3.3c-0.8,0.9-1.7,1.7-2.6,2.5c-0.9,0.8-1.9,1.5-2.8,2.1c-0.9,0.6-1.9,1.2-2.8,1.6c-0.9,0.5-1.8,0.9-2.6,1.2
			l-2.1-2.3c1.7-0.6,3.2-1.4,4.8-2.3c1.5-0.9,2.9-2,4.2-3.1c1.3-1.1,2.3-2.3,3.2-3.6s1.5-2.6,1.9-3.9c-1.4,0-2.7,0.1-4.1,0.1
			c-1.3,0-2.7,0-4.1,0h-3.9v-2.7h6.1c1.6,0,3.2,0,4.8,0c1.6,0,3.3,0,5-0.1c-0.1,1.6-0.5,3-1.1,4.4
			C603.6,977.1,602.8,978.5,601.9,979.7z M610.9,1003.7v-9.4h-18.3v-2.7H614v12.2H610.9z M619.4,980.9H614v8.7h-3.2v-19.8h3.2v8.3
			h5.3V980.9z"/>
		<path class="st8" d="M643,986.3c0.1-1,0.3-2,0.4-3s0.3-2.1,0.4-3.2c0.1-1.1,0.2-2.1,0.2-3.1c0.1-1,0.1-2,0.1-2.9h-18.8v-2.7h22.1
			c0,1.3,0,2.6-0.1,3.9c-0.1,1.4-0.2,2.7-0.3,4c-0.1,1.3-0.3,2.6-0.4,3.8c-0.1,1.2-0.3,2.3-0.4,3.3h5.9v2.7h-13.8v14.5h-3.3V989
			h-14.4v-2.7H643z"/>
	</g>
</g>
<g id="영등포구">
	<path id="Yeongdeungpo-gu_1_" class="st9" d="M385.4,872.8c3.9-3.2,8.3-7.2,13.5-11.5c3.5-2.9,11.8-7.6,13-12
		c1.5-5.8-2-11.7-1-19.5c-7.1-8.8-10.5-18.9-15.5-30.5s-11-20.3-10.5-36c12.6,8.7,21.9,21.8,35,30.5c6.3,4.2,14.3,6.9,21.5,10.5
		c21.1,10.6,42.7,22.5,66.5,29.5c4.2,20,4.9,40.5,12.5,56c5.4,11,16.1,15.8,25.5,22.5c0,0.2,0,0.3,0,0.5
		c-9.9,15.6-19.5,31.5-27,49.5c0.1,21.1-4.1,37.9-11,52c-9.3,2.6-22.6,2.6-30.5,6.5c-3,1.5-13.4,10.8-14.5,13.5
		c-3.1,7.4-0.6,17.2-4,26c-2.5,0.2-4,1.4-6,2c-6.9-4.2-13.5-8.8-20-13.5c0-1.2,0-2.3,0-3.5c-0.3-1.7,0.6-4.6-0.5-5.5
		c0-2.7,0-5.3,0-8c-0.3-1.7,0.6-4.6-0.5-5.5c0-2.8,0-5.7,0-8.5c-0.3-1.7,0.6-4.6-0.5-5.5c2.5-10.9-5.8-12.4-8-19
		c-2.4-7-2-15.6-4-23.5c-2-7.8-3.8-15.3-5.5-22.5c-9.5-5.9-19.5-11.2-29-17c0-8.5,0-17,0-25.5c0-7.3,0-14.7,0-22
		C386.1,880.5,385.1,876,385.4,872.8z M597.5,900.3c-20.9-23.7-42.3-46.7-74-59.5c2.1,15.4,4.5,30.5,9.5,43c5.7,5.1,13,14.7,21,17
		c10.2,2.9,21.3,0.7,34,1C589.7,900.1,598.2,902.8,597.5,900.3z"/>
	<g class="st7">
		<path class="st8" d="M408.2,895.7h7.7V892h3v18.8h-3v-5.5h-7.4c-0.7,1-1.7,1.8-2.8,2.4c-1.1,0.6-2.4,0.9-3.9,0.9
			c-1.2,0-2.2-0.2-3.2-0.6s-1.8-1-2.6-1.7c-0.7-0.7-1.3-1.6-1.7-2.5c-0.4-1-0.6-2-0.6-3.2c0-1.1,0.2-2.2,0.6-3.1
			c0.4-1,1-1.8,1.7-2.5c0.7-0.7,1.6-1.3,2.6-1.7s2.1-0.6,3.2-0.6c1.3,0,2.5,0.3,3.6,0.8C406.5,894.1,407.4,894.8,408.2,895.7z
			 M396.7,900.7c0,0.8,0.1,1.5,0.4,2.1c0.2,0.6,0.6,1.2,1,1.7s1,0.9,1.6,1.1s1.3,0.4,2.1,0.4c0.7,0,1.4-0.1,2.1-0.4
			c0.6-0.3,1.2-0.6,1.6-1.1s0.8-1,1.1-1.7c0.3-0.6,0.4-1.3,0.4-2.1c0-0.7-0.1-1.4-0.4-2.1c-0.3-0.7-0.6-1.2-1.1-1.7
			c-0.5-0.5-1-0.9-1.6-1.1c-0.6-0.3-1.3-0.4-2.1-0.4c-0.7,0-1.4,0.1-2.1,0.4s-1.2,0.6-1.6,1.1c-0.5,0.5-0.8,1-1.1,1.7
			S396.7,900,396.7,900.7z M419,917.6c0,1-0.2,1.8-0.6,2.6c-0.4,0.8-1.1,1.5-2,2.1c-0.9,0.6-2,1.1-3.2,1.4c-1.3,0.3-2.8,0.5-4.5,0.5
			c-1.7,0-3.2-0.2-4.5-0.5c-1.3-0.3-2.4-0.8-3.2-1.4c-0.9-0.6-1.5-1.3-2-2.1c-0.4-0.8-0.6-1.7-0.6-2.7c0-1,0.2-1.8,0.6-2.6
			c0.4-0.8,1.1-1.5,2-2.1c0.9-0.6,2-1.1,3.2-1.4c1.3-0.3,2.8-0.5,4.5-0.5c1.7,0,3.2,0.2,4.5,0.5c1.3,0.3,2.4,0.8,3.2,1.4
			c0.9,0.6,1.5,1.3,2,2.1C418.8,915.8,419,916.7,419,917.6z M415.8,917.6c0-0.5-0.1-1-0.4-1.5c-0.3-0.5-0.7-0.9-1.3-1.3
			c-0.6-0.4-1.3-0.7-2.2-0.9c-0.9-0.2-2-0.3-3.2-0.3c-1.2,0-2.3,0.1-3.2,0.3c-0.9,0.2-1.7,0.5-2.3,0.9c-0.6,0.4-1,0.8-1.3,1.3
			c-0.3,0.5-0.4,1-0.4,1.5c0,0.5,0.1,1.1,0.4,1.6c0.3,0.5,0.7,0.9,1.3,1.3c0.6,0.4,1.3,0.7,2.3,0.9c0.9,0.2,2,0.3,3.2,0.3
			c1.3,0,2.3-0.1,3.2-0.3c0.9-0.2,1.6-0.5,2.2-0.9c0.6-0.4,1-0.8,1.3-1.3C415.7,918.6,415.8,918.1,415.8,917.6z M409.6,902.9h6.2
			v-4.8h-6.4c0.3,0.8,0.4,1.7,0.4,2.6C409.9,901.4,409.8,902.2,409.6,902.9z"/>
		<path class="st8" d="M453.6,907v2.6h-30.5V907H453.6z M449.2,918.2c0,0.9-0.2,1.7-0.7,2.5s-1.1,1.4-2,1.9c-0.9,0.5-2,1-3.4,1.3
			c-1.4,0.3-2.9,0.5-4.7,0.5c-1.8,0-3.4-0.2-4.7-0.5c-1.4-0.3-2.5-0.7-3.4-1.3c-0.9-0.5-1.6-1.2-2.1-1.9c-0.5-0.7-0.7-1.6-0.7-2.5
			c0-0.9,0.2-1.7,0.7-2.4c0.5-0.7,1.2-1.3,2.1-1.9c0.9-0.5,2-0.9,3.4-1.2c1.4-0.3,2.9-0.4,4.7-0.4c1.8,0,3.3,0.1,4.7,0.4
			c1.4,0.3,2.5,0.7,3.4,1.2c0.9,0.5,1.6,1.1,2,1.9C449,916.5,449.2,917.3,449.2,918.2z M428.1,892.9h20.2v2.6h-17.1v5.5h17.3v2.5
			h-20.4V892.9z M446,918.2c0-0.4-0.1-0.9-0.4-1.3s-0.7-0.8-1.3-1.1c-0.6-0.3-1.4-0.6-2.3-0.8c-1-0.2-2.2-0.3-3.6-0.3
			c-1.4,0-2.7,0.1-3.6,0.3c-1,0.2-1.8,0.5-2.3,0.8c-0.6,0.3-1,0.7-1.3,1.1c-0.2,0.4-0.4,0.9-0.4,1.3c0,0.4,0.1,0.9,0.4,1.3
			c0.2,0.4,0.7,0.8,1.3,1.2c0.6,0.3,1.4,0.6,2.3,0.8c1,0.2,2.2,0.3,3.6,0.3c1.4,0,2.6-0.1,3.6-0.3c1-0.2,1.8-0.5,2.3-0.8
			c0.6-0.3,1-0.7,1.3-1.2C445.8,919,446,918.6,446,918.2z"/>
		<path class="st8" d="M458.2,910.2v-2.6h4.4l-0.2-9.1h3l0.2,9.2h8l0.3-9.2h3l-0.4,9.1h4.5v2.6h-10v6.6h13.4v2.6h-29.8v-2.6h13.2
			v-6.6H458.2z M458.7,897.4v-2.6h21.8v2.6H458.7z"/>
		<path class="st8" d="M507.2,907.6c0.1-0.9,0.3-1.9,0.4-2.9s0.3-2,0.4-3c0.1-1,0.2-2,0.2-3c0.1-1,0.1-1.9,0.1-2.7h-17.8v-2.6h20.9
			c0,1.2,0,2.4-0.1,3.7c-0.1,1.3-0.2,2.5-0.3,3.8c-0.1,1.2-0.3,2.4-0.4,3.6c-0.1,1.1-0.3,2.2-0.4,3.1h5.6v2.6h-13.1v13.7h-3.1v-13.7
			h-13.6v-2.6H507.2z"/>
	</g>
</g>
<g id="구로구">
	<path id="Guro-gu" class="st11" d="M428.9,1040.4c0.3,1.7-0.6,4.6,0.5,5.5c0,1,0,2,0,3c-7,3.3-11.1,9.5-20.5,10.5
		c-1.8,0.3-5-0.6-6,0.5c-2.7,0-5.3,0-8,0c-1.8,0.3-5-0.6-6,0.5c-2.8,0-5.7,0-8.5,0c-3.8,0-7.7,0-11.5,0c-3.1-0.3-7.2,0.6-9.5-0.5
		c-2-8.4,1.5-17.8-2-24.5c-1.4-2.6-7.7-5.6-10-7c-3.7-2.2-8.2-5.9-11.5-6c-2.8-0.1-7.5,2.7-10,4c-2.8,1.5-7.2,3.2-9.5,5
		c-2.4,1.8-8,9-9,12c-2.3,6.5,0.5,16.6-5,19c-2.7,2.3-5.2,4.8-7.5,7.5c-3.5,3.1-6.9,6.5-10,10c-1.1,1.7-2.2,3.4-4,4.5
		c-2.7,2.3-5.2,4.8-7.5,7.5c-3.5,3.1-6.9,6.5-10,10c-2.6,2.8-4,6.5-7.5,7.5c-6.1,1.7-16.2,0.9-22,0s-10.4-4.8-15.5-5
		c-10.4-0.3-19.7,5.4-29,6c-5.2,0.3-9.7-1.1-15.5-1.5c5.9-12.1,11.9-26.1,18-39c2.1-4.5,6-9.4,6-13.5c0-5.5-5.3-12.9-8.5-20
		c-2.1-4.6-8.6-16-8.5-20c0-2.1,2.8-6.6,4.5-10c8.8-18.2,18.6-35.6,21.5-57c-0.3-3.2-3.4-3.6-4.5-6c7.6,0.8,14.5,2.1,21.5,3.5
		c2.3,5.4,3.4,11.9,7,16c0.5,0.8,4.5,0.8,5,0c3.5,0,7,0,10.5,0c4-0.3,9.3,0.7,12.5-0.5c5.6-2.2,10.7-8.4,16.5-13.5
		c2.2-2,5.2-3.9,8-6.5c4.4-4,6.3-8.4,13.5-7c0.9,1.1,3.8,0.2,5.5,0.5c4.2,0,8.3,0,12.5,0c2.1,7.5,5.1,14.3,7,22
		c5,1.3,9.4,5.9,15.5,6.5c7.7,0.8,16.3-2,25.5-1c1.5-0.3,4.3,0.6,5-0.5c3.8-2.2,6.6-9.3,9-14.5c2.5-5.3,3.8-10.8,7-14.5
		c4.7,2.1,8.6,5.2,13.5,8c3.8,2.2,11.1,4.3,13.5,8c1.4,2.2,2.1,7,3,10.5c3,11.1,5.2,22.9,6.5,35.5c3.5,4.7,9.1,7.2,7.5,17
		c0.3,1.7-0.6,4.6,0.5,5.5c0,2.8,0,5.7,0,8.5c0.3,1.7-0.6,4.6,0.5,5.5C428.9,1035,428.9,1037.7,428.9,1040.4z"/>
	<g class="st7">
		<path class="st8" d="M231.7,1015.1c0.1-1,0.3-2,0.4-3s0.3-2.1,0.4-3.2c0.1-1.1,0.2-2.1,0.2-3.1c0.1-1,0.1-2,0.1-2.9h-18.8v-2.7
			h22.1c0,1.3,0,2.6-0.1,3.9c-0.1,1.4-0.2,2.7-0.3,4c-0.1,1.3-0.3,2.6-0.4,3.8c-0.1,1.2-0.3,2.3-0.4,3.3h5.9v2.7H227v14.5h-3.3
			v-14.5h-14.4v-2.7H231.7z"/>
		<path class="st8" d="M247.5,1019v-10.2h17.9v-4.9h-18v-2.8h21.2v10.3h-17.9v4.9h19.1v2.7h-10v6h14.1v2.7h-31.5v-2.7h14.1v-6H247.5
			z"/>
		<path class="st8" d="M297.7,1015.1c0.1-1,0.3-2,0.4-3s0.3-2.1,0.4-3.2c0.1-1.1,0.2-2.1,0.2-3.1c0.1-1,0.1-2,0.1-2.9h-18.8v-2.7
			h22.1c0,1.3,0,2.6-0.1,3.9c-0.1,1.4-0.2,2.7-0.3,4c-0.1,1.3-0.3,2.6-0.4,3.8c-0.1,1.2-0.3,2.3-0.4,3.3h5.9v2.7H293v14.5h-3.3
			v-14.5h-14.4v-2.7H297.7z"/>
	</g>
</g>
<g id="양천구">
	<path id="Yangcheon-gu" class="st12" d="M199.4,804.3c2.8-5,4.9-10.8,8.5-15c6.6,0.7,11.9-2.6,17-1.5c2.3,0.5,7.2,5.1,8.5,7
		c2,3,3.1,8,5,12.5c4.9,11.6,11.8,26.6,15.5,37c6.6,6.6,15,9.5,27,12c5.2,1.1,10.6,2.9,15,2.5c10.1-0.9,18.7-8.3,27-10.5
		c2.2-9.4,12.7-18.5,15-27c2.7-9.8-0.6-21.7,2-30.5c1.6-5.6,5.6-8.4,8.5-13c6.4,0.4,10.8,2.8,16,4.5c5.5,1.5,14.5-0.5,20,1
		c6.6,12.1,10,26,16.5,38c1.7,3.2,5.4,5.8,6.5,9.5c1.7,5.8-0.1,11.6,1.5,17.5c-8.8,8.4-18.9,15.4-27.5,24c0,5,0,10,0,15
		c-1.2,4.2-0.2,10.5-0.5,15.5c0,8.3,0,16.7,0,25c-2.3,12.4-8.9,20.5-13,31c-0.8,1.2-4.3-0.3-5,1c-14.3,0.5-29.9,2.9-38-4.5
		c-2.6-7.2-4.9-14.8-7.5-22c-4.3-0.8-9.2-1.1-14.5-1c-0.9-1.1-3.8-0.2-5.5-0.5c-2.5,0-5,0-7.5,0c-10.9,8.7-19.8,19.5-32,27
		c-4.2,0-8.3,0-12.5,0c-2.3,0.3-6-0.7-7.5,0.5c-2,0-4,0-6,0c-1.7-5.4-3.6-10.7-6-15.5c-9.5-1.8-19.2-3.4-29-5
		c2-7.6,11.3-18.9,12.5-27c1.8-11.9,0-27.8,0-43s2.1-31.8,0-43.5C207.8,816.7,200.7,810.3,199.4,804.3z"/>
	<g class="st7">
		<path class="st8" d="M249.8,885.6c0-1.2,0.2-2.3,0.6-3.3c0.4-1,1-1.9,1.8-2.7c0.8-0.8,1.7-1.3,2.7-1.8c1-0.4,2.2-0.6,3.4-0.6
			c1.2,0,2.3,0.2,3.4,0.6c1,0.4,2,1,2.7,1.8c0.8,0.8,1.4,1.6,1.8,2.7c0.4,1,0.6,2.1,0.6,3.3c0,1.2-0.2,2.3-0.6,3.3
			c-0.4,1-1,1.9-1.8,2.7c-0.8,0.8-1.7,1.3-2.7,1.8c-1,0.4-2.2,0.6-3.4,0.6c-1.2,0-2.4-0.2-3.4-0.6c-1-0.4-1.9-1-2.7-1.8
			c-0.8-0.8-1.4-1.6-1.8-2.7C250,887.9,249.8,886.8,249.8,885.6z M252.9,885.6c0,0.8,0.1,1.6,0.4,2.2c0.3,0.7,0.6,1.3,1.1,1.8
			c0.5,0.5,1.1,0.9,1.7,1.2c0.7,0.3,1.4,0.4,2.2,0.4c0.8,0,1.5-0.1,2.2-0.4c0.7-0.3,1.3-0.7,1.7-1.2c0.5-0.5,0.9-1.1,1.1-1.8
			c0.3-0.7,0.4-1.4,0.4-2.2c0-0.8-0.1-1.5-0.4-2.2c-0.3-0.7-0.6-1.3-1.1-1.8s-1.1-0.9-1.7-1.2c-0.7-0.3-1.4-0.4-2.2-0.4
			c-0.8,0-1.5,0.1-2.2,0.4c-0.7,0.3-1.2,0.7-1.7,1.2s-0.9,1.1-1.1,1.8C253.1,884.1,252.9,884.8,252.9,885.6z M276.2,903.5
			c0,1-0.2,1.9-0.7,2.8s-1.1,1.6-2.1,2.2c-0.9,0.6-2.1,1.1-3.4,1.5c-1.4,0.4-2.9,0.5-4.7,0.5c-1.8,0-3.4-0.2-4.8-0.5
			c-1.4-0.4-2.5-0.9-3.4-1.5c-0.9-0.6-1.6-1.4-2.1-2.2s-0.7-1.8-0.7-2.8s0.2-1.9,0.7-2.8s1.1-1.6,2.1-2.2c0.9-0.6,2.1-1.1,3.4-1.5
			c1.4-0.4,2.9-0.5,4.8-0.5c1.8,0,3.4,0.2,4.7,0.5c1.4,0.4,2.5,0.9,3.4,1.5c0.9,0.6,1.6,1.4,2.1,2.2S276.2,902.5,276.2,903.5z
			 M272.9,903.4c0-0.6-0.1-1.1-0.4-1.6c-0.3-0.5-0.8-1-1.4-1.4c-0.6-0.4-1.4-0.7-2.4-1c-0.9-0.2-2.1-0.4-3.4-0.4
			c-1.3,0-2.4,0.1-3.4,0.4c-1,0.2-1.8,0.6-2.4,1c-0.6,0.4-1.1,0.9-1.4,1.4c-0.3,0.5-0.5,1.1-0.5,1.6s0.2,1.1,0.5,1.6
			c0.3,0.5,0.8,1,1.4,1.4s1.4,0.7,2.4,0.9c1,0.2,2.1,0.4,3.4,0.4c1.3,0,2.5-0.1,3.4-0.4c0.9-0.2,1.7-0.5,2.4-0.9s1.1-0.9,1.4-1.4
			C272.8,904.6,272.9,904,272.9,903.4z M275.7,880.6h5.2v2.7h-5.2v4.7h5.2v2.7h-5.2v5.1h-3.2v-19.4h3.2V880.6z"/>
		<path class="st8" d="M296.8,890.5c1.1,1,2.3,1.9,3.6,2.7c1.3,0.8,2.7,1.6,4.2,2.2l-2,2.5c-1.3-0.6-2.7-1.4-4-2.4
			c-1.3-0.9-2.5-2-3.6-3.1c-1.3,1.3-2.8,2.4-4.4,3.4s-3.4,1.9-5.3,2.7l-1.9-2.4c2-0.7,3.7-1.5,5.3-2.5c1.5-1,2.9-2,4-3
			c1.1-1.1,2-2.1,2.8-3.2c0.7-1.1,1.2-2.1,1.6-2.9c-1.4,0-2.8,0.1-4.1,0.1s-2.7,0-4.1,0H285V882h5.9c1.6,0,3.2,0,4.8,0
			s3.3,0,5.1-0.1C300.4,885,299.1,887.8,296.8,890.5z M288,879.4v-2.7h10.1v2.7H288z M311.1,909.5h-21.5v-9.2h3.3v6.4h18.2V909.5z
			 M301.7,890.4v-2.7h5.4v-11.2h3.2V902h-3.2v-11.7H301.7z"/>
		<path class="st8" d="M337.7,892.9c0.1-1,0.3-2,0.4-3s0.3-2.1,0.4-3.2c0.1-1.1,0.2-2.1,0.2-3.1c0.1-1,0.1-2,0.1-2.9H320v-2.7h22.1
			c0,1.3,0,2.6-0.1,3.9c-0.1,1.4-0.2,2.7-0.3,4c-0.1,1.3-0.3,2.6-0.4,3.8c-0.1,1.2-0.3,2.3-0.4,3.3h5.9v2.7h-13.8V910h-3.3v-14.5
			h-14.4v-2.7H337.7z"/>
	</g>
</g>
<g id="강서구">
	<path id="Gangseo-gu" class="st13" d="M134.9,530.8c14.2,7.9,28.9,17.5,41.5,27c4.3,3.2,9.5,6.1,13,9.5c4.2,4.1,7.7,10.2,11.5,15
		c3.9,5,7.4,10.6,11.5,15c6.6,7.1,15.1,12.2,21.5,19c8.1,8.6,12.9,20.3,21.5,29c6.4,6.5,17.3,10.1,26,15c3.4,1.9,6.9,4.5,10.5,6.5
		c3.9,2.2,8.5,3.6,11.5,6c3.5,2.8,6.4,8.2,10,12.5s8.2,8.1,10.5,12c3.5,6,5,13,8.5,18.5c5.6,8.7,15.4,15.3,23,22
		c8.1,7.2,16.7,13.6,24.5,21c2.3,5.1,2.5,12.1,3,19c0,0.3,0,0.7,0,1c-6,0-12,0-18,0c-5.9-1.7-11-4.4-18.5-4.5
		c-3.8,4.7-6.5,10.5-10,15.5c-0.2,10.5-1.5,19.8-1.5,30.5c-5.5,8.2-10.3,17-15,26c-8.7,1.7-16.4,9-25,9.5c-3.4,0.2-9.7-1.7-13.5-2.5
		c-10.7-2.1-20.2-5-25-12c-2-2.9-3.3-8-5-12c-3.7-8.7-7.1-16.4-10.5-24.5c-1.9-4.4-2.9-9.5-5-12.5c-2-2.8-7.9-7.5-10.5-8
		c-6.1-1-14.4,2.9-20,2c-3.3,5.2-6.1,10.9-9,16.5c-8.6-0.6-16.5-0.9-25-1.5c-6.7-0.5-19.1-2.9-25.5-1.5c-5,1.1-10.5,10.2-14,14
		c-4.8,5.2-9.1,9.7-14,14c-2.7-5.2-5.2-10.1-7.5-16c-1.9-4.9-3.5-13.2-7-16.5c-2.5-2.4-9.3-3.9-13.5-5.5
		c-14.5-5.6-28.7-11.1-42-16.5c-0.5-13.7-5.6-22.7-10-32.5c4.1-5.3,11.9-4.4,15.5-10c1.7-2.6,1.6-7.9,2.5-12c2.5-12,6-25.2,9-35.5
		c5.5-2.6,11-4.8,17.5-7.5c4.7-2,13.8-4.1,16.5-8.5c3.1-5.1,2.6-13.7,3.5-21c0.9-7.4,1.8-14.7,2.5-22c3.8-3.6,7.8-7.5,13-12
		c6.5-5.6,15.7-9.4,13-23c1.2-1.7,0.2-5.5,0.5-8c1.9-13.3-8.9-25.1-6-37.5C126.6,538.5,132.8,536.3,134.9,530.8z"/>
	<g class="st7">
		<path class="st8" d="M166.4,706.5c-1.5,0-2.9,0.1-4.4,0.1s-2.9,0-4.4,0h-3.2v-2.7h5.4c1.7,0,3.5,0,5.2,0c1.7,0,3.5,0,5.2-0.1
			c-0.1,2-0.6,4-1.4,5.8c-0.8,1.8-1.8,3.6-3.1,5.1s-2.9,3-4.8,4.2c-1.9,1.2-4,2.2-6.4,2.9l-1.9-2.5c3.9-1.2,7.1-2.8,9.5-5
			C164.4,712.2,165.9,709.6,166.4,706.5z M179.1,729.7c0,1-0.2,1.9-0.7,2.7c-0.5,0.8-1.1,1.6-2.1,2.2c-0.9,0.6-2.1,1.1-3.4,1.4
			c-1.4,0.3-2.9,0.5-4.7,0.5c-1.8,0-3.4-0.2-4.8-0.5c-1.4-0.3-2.5-0.8-3.4-1.4c-0.9-0.6-1.6-1.3-2.1-2.2c-0.5-0.8-0.7-1.8-0.7-2.7
			c0-1,0.2-1.9,0.7-2.7c0.5-0.8,1.1-1.5,2.1-2.2c0.9-0.6,2.1-1.1,3.4-1.4c1.4-0.3,2.9-0.5,4.8-0.5c1.8,0,3.4,0.2,4.7,0.5
			c1.4,0.3,2.5,0.8,3.4,1.4c0.9,0.6,1.6,1.3,2.1,2.2C178.8,727.8,179.1,728.7,179.1,729.7z M175.7,729.7c0-0.5-0.1-1.1-0.4-1.6
			c-0.3-0.5-0.8-0.9-1.4-1.3s-1.4-0.7-2.4-0.9c-0.9-0.2-2.1-0.4-3.4-0.4c-1.3,0-2.4,0.1-3.4,0.4c-1,0.2-1.8,0.5-2.4,0.9
			s-1.1,0.8-1.4,1.3c-0.3,0.5-0.5,1-0.5,1.6c0,0.5,0.2,1.1,0.5,1.6c0.3,0.5,0.8,0.9,1.4,1.3s1.4,0.7,2.4,0.9c1,0.2,2.1,0.3,3.4,0.3
			c1.3,0,2.5-0.1,3.4-0.3c0.9-0.2,1.7-0.5,2.4-0.9s1.1-0.8,1.4-1.3C175.6,730.7,175.7,730.2,175.7,729.7z M184,713.9h-5.3v8.4h-3.2
			v-19.9h3.2v8.7h5.3V713.9z"/>
		<path class="st8" d="M186.6,728.8l-2.3-2c1.5-1.1,2.9-2.3,4.2-3.7c1.3-1.4,2.4-3,3.3-4.8c0.9-1.8,1.5-3.9,2-6.1
			c0.4-2.3,0.5-4.8,0.4-7.6h3.4c0,1.6,0,3.2-0.1,4.6c-0.1,1.5-0.4,2.8-0.6,4.2c0.9,2.5,2.1,4.9,3.8,7c1.6,2.1,3.6,3.9,5.8,5.4
			l-2.1,2.4c-1.9-1.3-3.5-2.9-5-4.6c-1.5-1.8-2.7-3.8-3.8-6c-0.9,2.4-2.2,4.6-3.6,6.5C190.3,725.7,188.6,727.4,186.6,728.8z
			 M202.6,716.8V714h7.5v-11.6h3.2v33.8h-3.2v-19.4H202.6z"/>
		<path class="st8" d="M240.6,718.9c0.1-1,0.3-2,0.4-3s0.3-2.1,0.4-3.2c0.1-1.1,0.2-2.1,0.2-3.1c0.1-1,0.1-2,0.1-2.9H223v-2.7H245
			c0,1.3,0,2.6-0.1,3.9c-0.1,1.4-0.2,2.7-0.3,4c-0.1,1.3-0.3,2.6-0.4,3.8c-0.1,1.2-0.3,2.3-0.4,3.3h5.9v2.7h-13.8V736h-3.3v-14.5
			h-14.4v-2.7H240.6z"/>
	</g>
</g>
<g id="금천구">
	<path id="Geumcheon-gu" class="st6" d="M409.4,1062.9c10.1-0.9,14.1-7.9,22-11c8.7,4,17.8,18.7,29,11.5c1.9,4.7,4.9,8.4,7,13
		c4.4,2,8.9,3.8,13,6c-0.1,3.7-0.8,6.9-0.5,11c-0.8,0.7-0.8,4.8,0,5.5c1.3,19.8,4.2,42.3,6.5,61.5c0.8,7.1,0.7,15.2,2.5,20.5
		c2,5.8,8.9,10.4,10.5,16c4.8,1.2,8.8,3.2,13.5,4.5c1.2,6.3,3.3,11.7,5,17.5c-0.6,2.6-3.2,3.2-4.5,5c-16.4,3.5-20.5,19.1-25,34.5
		c-8.1,0.7-14.7,8.8-23,10c-10,1.5-19.7-2.6-31.5-1.5c-7-26.9-16.1-59.1-24-88c-2-7.3-3.8-24.8-9-28.5c-3-2.2-9.4-1.8-13.5-2
		c-2.9-34.1-17.1-56.9-26.5-84.5c2.5,0,5,0,7.5,0c3,0.8,9.5,0.8,12.5,0c2.8,0,5.7,0,8.5,0c1.8-0.3,5,0.6,6-0.5c2.7,0,5.3,0,8,0
		C405.3,1063.1,408.4,1064,409.4,1062.9z"/>
	<g class="st7">
		<path class="st8" d="M388.8,1101.8H409c0,2.1-0.2,4.2-0.3,6.1s-0.4,3.6-0.5,5h5.8v2.5h-29.6v-2.5h20.9c0.2-1.4,0.4-2.9,0.5-4.3
			c0.1-1.4,0.2-2.9,0.3-4.3h-17.3V1101.8z M389.1,1131.3V1120h20v11.3H389.1z M406.2,1122.5H392v6.3h14.1V1122.5z"/>
		<path class="st8" d="M428.4,1113.7c1,0.9,2.1,1.7,3.3,2.5c1.2,0.8,2.5,1.4,3.9,2l-1.9,2.3c-1.2-0.6-2.4-1.3-3.7-2.2
			c-1.2-0.9-2.3-1.8-3.3-2.8c-1.2,1.2-2.5,2.2-4,3.1s-3.1,1.8-4.9,2.5l-1.8-2.2c1.8-0.6,3.4-1.4,4.8-2.3c1.4-0.9,2.6-1.8,3.7-2.8
			s1.9-2,2.5-2.9s1.1-1.9,1.4-2.7c-1.3,0-2.5,0.1-3.8,0.1c-1.2,0-2.5,0-3.8,0h-3.3v-2.4h5.4c1.5,0,3,0,4.5,0s3,0,4.7-0.1
			C431.7,1108.6,430.5,1111.2,428.4,1113.7z M420.4,1103.5v-2.4h9.3v2.4H420.4z M441.5,1131.2h-19.8v-8.4h3v5.9h16.8V1131.2z
			 M432.9,1113.6v-2.5h5v-10.3h2.9v23.5h-2.9v-10.7H432.9z"/>
		<path class="st8" d="M466,1115.9c0.1-0.9,0.3-1.8,0.4-2.8s0.2-1.9,0.3-2.9s0.2-1.9,0.2-2.9c0.1-0.9,0.1-1.8,0.1-2.6h-17.3v-2.5
			H470c0,1.2,0,2.4-0.1,3.6c-0.1,1.2-0.2,2.5-0.3,3.7s-0.3,2.4-0.4,3.5c-0.1,1.1-0.3,2.1-0.4,3h5.4v2.5h-12.7v13.3h-3v-13.3h-13.3
			v-2.5H466z"/>
	</g>
</g>
<g class="st7">
	<path class="st8" d="M50,132.1c1.7,0,3.1,0.7,4,2.2c0.9,1.5,1.4,3.7,1.4,6.6c0,2.9-0.5,5.1-1.4,6.4c-0.9,1.3-2.3,2-4,2
		c-0.9,0-1.6-0.2-2.3-0.5c-0.7-0.3-1.2-0.8-1.7-1.5c-0.5-0.7-0.8-1.6-1-2.6c-0.2-1.1-0.4-2.3-0.4-3.8c0-2.9,0.5-5.1,1.4-6.6
		C46.9,132.9,48.3,132.1,50,132.1z M50,133.7c-2.3,0-3.5,2.4-3.5,7.3c0,2.4,0.3,4.2,0.9,5.3c0.6,1.1,1.4,1.6,2.6,1.6
		c1.2,0,2-0.5,2.6-1.6s0.9-2.8,0.9-5.3C53.5,136.1,52.3,133.7,50,133.7z"/>
</g>
<g class="st7">
	<path class="st8" d="M439.9,135.6c-0.2,0.2-0.2,0.1-0.2-0.1v-1.6c0.6-0.5,1.3-0.9,2-1.2c0.7-0.3,1.6-0.5,2.6-0.5
		c1.6,0,2.8,0.4,3.6,1.1s1.2,1.8,1.2,3.3c0,0.5-0.1,1-0.2,1.4c-0.2,0.5-0.4,0.9-0.7,1.4s-0.6,0.9-1,1.4c-0.4,0.5-0.8,1-1.3,1.6
		l-4.5,5.1v0h8v1.5h-10.3v-1.7l5.1-5.8c0.6-0.7,1-1.3,1.4-1.8c0.4-0.5,0.7-0.9,0.9-1.3c0.2-0.4,0.4-0.7,0.5-1c0.1-0.3,0.1-0.6,0.1-1
		c0-0.9-0.2-1.6-0.7-2.1c-0.5-0.5-1.2-0.7-2.2-0.7c-0.7,0-1.4,0.2-2.2,0.5C441.4,134.5,440.7,135,439.9,135.6z"/>
	<path class="st8" d="M457.2,132.1c1.7,0,3.1,0.7,4,2.2c0.9,1.5,1.4,3.7,1.4,6.6c0,2.9-0.5,5.1-1.4,6.4c-0.9,1.3-2.3,2-4,2
		c-0.9,0-1.6-0.2-2.3-0.5c-0.7-0.3-1.2-0.8-1.7-1.5c-0.5-0.7-0.8-1.6-1-2.6c-0.2-1.1-0.4-2.3-0.4-3.8c0-2.9,0.5-5.1,1.4-6.6
		C454.1,132.9,455.4,132.1,457.2,132.1z M457.2,133.7c-2.3,0-3.5,2.4-3.5,7.3c0,2.4,0.3,4.2,0.9,5.3c0.6,1.1,1.4,1.6,2.6,1.6
		c1.2,0,2-0.5,2.6-1.6s0.9-2.8,0.9-5.3C460.7,136.1,459.5,133.7,457.2,133.7z"/>
	<path class="st8" d="M470,132.1c1.7,0,3.1,0.7,4,2.2c0.9,1.5,1.4,3.7,1.4,6.6c0,2.9-0.5,5.1-1.4,6.4c-0.9,1.3-2.3,2-4,2
		c-0.9,0-1.6-0.2-2.3-0.5c-0.7-0.3-1.2-0.8-1.7-1.5c-0.5-0.7-0.8-1.6-1-2.6c-0.2-1.1-0.4-2.3-0.4-3.8c0-2.9,0.5-5.1,1.4-6.6
		C466.9,132.9,468.3,132.1,470,132.1z M470,133.7c-2.3,0-3.5,2.4-3.5,7.3c0,2.4,0.3,4.2,0.9,5.3c0.6,1.1,1.4,1.6,2.6,1.6
		c1.2,0,2-0.5,2.6-1.6s0.9-2.8,0.9-5.3C473.5,136.1,472.3,133.7,470,133.7z"/>
	<path class="st8" d="M482.8,132.1c1.7,0,3.1,0.7,4,2.2c0.9,1.5,1.4,3.7,1.4,6.6c0,2.9-0.5,5.1-1.4,6.4c-0.9,1.3-2.3,2-4,2
		c-0.9,0-1.6-0.2-2.3-0.5c-0.7-0.3-1.2-0.8-1.7-1.5c-0.5-0.7-0.8-1.6-1-2.6c-0.2-1.1-0.4-2.3-0.4-3.8c0-2.9,0.5-5.1,1.4-6.6
		C479.8,132.9,481.1,132.1,482.8,132.1z M482.8,133.7c-2.3,0-3.5,2.4-3.5,7.3c0,2.4,0.3,4.2,0.9,5.3c0.6,1.1,1.4,1.6,2.6,1.6
		c1.2,0,2-0.5,2.6-1.6s0.9-2.8,0.9-5.3C486.3,136.1,485.2,133.7,482.8,133.7z"/>
	<path class="st8" d="M495.7,132.1c1.7,0,3.1,0.7,4,2.2c0.9,1.5,1.4,3.7,1.4,6.6c0,2.9-0.5,5.1-1.4,6.4c-0.9,1.3-2.3,2-4,2
		c-0.9,0-1.6-0.2-2.3-0.5c-0.7-0.3-1.2-0.8-1.7-1.5c-0.5-0.7-0.8-1.6-1-2.6c-0.2-1.1-0.4-2.3-0.4-3.8c0-2.9,0.5-5.1,1.4-6.6
		C492.6,132.9,493.9,132.1,495.7,132.1z M495.7,133.7c-2.3,0-3.5,2.4-3.5,7.3c0,2.4,0.3,4.2,0.9,5.3c0.6,1.1,1.4,1.6,2.6,1.6
		c1.2,0,2-0.5,2.6-1.6s0.9-2.8,0.9-5.3C499.1,136.1,498,133.7,495.7,133.7z"/>
</g>
</svg>
