<?xml version="1.0" encoding="utf-8"?>
<!-- Generator: Adobe Illustrator 22.0.1, SVG Export Plug-In . SVG Version: 6.00 Build 0)  -->
<svg version="1.1" id="레이어_1" xmlns="http://www.w3.org/2000/svg" xmlns:xlink="http://www.w3.org/1999/xlink" x="0px"
	 y="0px" viewBox="0 0 1000 1000" style="enable-background:new 0 0 1000 1000;" xml:space="preserve">
<style type="text/css">
	.st0{fill:none;stroke:#000000;stroke-width:2;}
	.st1{fill:#FFFFFF;stroke:#000000;stroke-width:4;stroke-miterlimit:10;}
</style>
<g>
	<line class="st0" x1="182.9" y1="369" x2="394.3" y2="281.7"/>
	<line class="st0" x1="182.9" y1="369" x2="394.3" y2="369"/>
	<line class="st0" x1="182.9" y1="369" x2="394.3" y2="456.3"/>
	<line class="st0" x1="182.9" y1="369" x2="394.3" y2="543.7"/>
	<line class="st0" x1="182.9" y1="369" x2="394.3" y2="631"/>
	<line class="st0" x1="182.9" y1="369" x2="394.3" y2="718.3"/>
	<line class="st0" x1="182.9" y1="456.3" x2="394.3" y2="281.7"/>
	<line class="st0" x1="182.9" y1="456.3" x2="394.3" y2="369"/>
	<line class="st0" x1="182.9" y1="456.3" x2="394.3" y2="456.3"/>
	<line class="st0" x1="182.9" y1="456.3" x2="394.3" y2="543.7"/>
	<line class="st0" x1="182.9" y1="456.3" x2="394.3" y2="631"/>
	<line class="st0" x1="182.9" y1="456.3" x2="394.3" y2="718.3"/>
	<line class="st0" x1="182.9" y1="543.7" x2="394.3" y2="281.7"/>
	<line class="st0" x1="182.9" y1="543.7" x2="394.3" y2="369"/>
	<line class="st0" x1="182.9" y1="543.7" x2="394.3" y2="456.3"/>
	<line class="st0" x1="182.9" y1="543.7" x2="394.3" y2="543.7"/>
	<line class="st0" x1="182.9" y1="543.7" x2="394.3" y2="631"/>
	<line class="st0" x1="182.9" y1="543.7" x2="394.3" y2="718.3"/>
	<line class="st0" x1="182.9" y1="631" x2="394.3" y2="281.7"/>
	<line class="st0" x1="182.9" y1="631" x2="394.3" y2="369"/>
	<line class="st0" x1="182.9" y1="631" x2="394.3" y2="456.3"/>
	<line class="st0" x1="182.9" y1="631" x2="394.3" y2="543.7"/>
	<line class="st0" x1="182.9" y1="631" x2="394.3" y2="631"/>
	<line class="st0" x1="182.9" y1="631" x2="394.3" y2="718.3"/>
</g>
<g>
	<line class="st0" x1="394.3" y1="281.7" x2="605.7" y2="281.7"/>
	<line class="st0" x1="394.3" y1="281.7" x2="605.7" y2="369"/>
	<line class="st0" x1="394.3" y1="281.7" x2="605.7" y2="456.3"/>
	<line class="st0" x1="394.3" y1="281.7" x2="605.7" y2="543.7"/>
	<line class="st0" x1="394.3" y1="281.7" x2="605.7" y2="631"/>
	<line class="st0" x1="394.3" y1="281.7" x2="605.7" y2="718.3"/>
	<line class="st0" x1="394.3" y1="369" x2="605.7" y2="281.7"/>
	<line class="st0" x1="394.3" y1="369" x2="605.7" y2="369"/>
	<line class="st0" x1="394.3" y1="369" x2="605.7" y2="456.3"/>
	<line class="st0" x1="394.3" y1="369" x2="605.7" y2="543.7"/>
	<line class="st0" x1="394.3" y1="369" x2="605.7" y2="631"/>
	<line class="st0" x1="394.3" y1="369" x2="605.7" y2="718.3"/>
	<line class="st0" x1="394.3" y1="456.3" x2="605.7" y2="281.7"/>
	<line class="st0" x1="394.3" y1="456.3" x2="605.7" y2="369"/>
	<line class="st0" x1="394.3" y1="456.3" x2="605.7" y2="456.3"/>
	<line class="st0" x1="394.3" y1="456.3" x2="605.7" y2="543.7"/>
	<line class="st0" x1="394.3" y1="456.3" x2="605.7" y2="631"/>
	<line class="st0" x1="394.3" y1="456.3" x2="605.7" y2="718.3"/>
	<line class="st0" x1="394.3" y1="543.7" x2="605.7" y2="281.7"/>
	<line class="st0" x1="394.3" y1="543.7" x2="605.7" y2="369"/>
	<line class="st0" x1="394.3" y1="543.7" x2="605.7" y2="456.3"/>
	<line class="st0" x1="394.3" y1="543.7" x2="605.7" y2="543.7"/>
	<line class="st0" x1="394.3" y1="543.7" x2="605.7" y2="631"/>
	<line class="st0" x1="394.3" y1="543.7" x2="605.7" y2="718.3"/>
	<line class="st0" x1="394.3" y1="631" x2="605.7" y2="281.7"/>
	<line class="st0" x1="394.3" y1="631" x2="605.7" y2="369"/>
	<line class="st0" x1="394.3" y1="631" x2="605.7" y2="456.3"/>
	<line class="st0" x1="394.3" y1="631" x2="605.7" y2="543.7"/>
	<line class="st0" x1="394.3" y1="631" x2="605.7" y2="631"/>
	<line class="st0" x1="394.3" y1="631" x2="605.7" y2="718.3"/>
	<line class="st0" x1="394.3" y1="718.3" x2="605.7" y2="281.7"/>
	<line class="st0" x1="394.3" y1="718.3" x2="605.7" y2="369"/>
	<line class="st0" x1="394.3" y1="718.3" x2="605.7" y2="456.3"/>
	<line class="st0" x1="394.3" y1="718.3" x2="605.7" y2="543.7"/>
	<line class="st0" x1="394.3" y1="718.3" x2="605.7" y2="631"/>
	<line class="st0" x1="394.3" y1="718.3" x2="605.7" y2="718.3"/>
</g>
<g>
	<line class="st0" x1="605.7" y1="281.7" x2="817.1" y2="369"/>
	<line class="st0" x1="605.7" y1="281.7" x2="817.1" y2="456.3"/>
	<line class="st0" x1="605.7" y1="281.7" x2="817.1" y2="543.7"/>
	<line class="st0" x1="605.7" y1="281.7" x2="817.1" y2="631"/>
	<line class="st0" x1="605.7" y1="369" x2="817.1" y2="369"/>
	<line class="st0" x1="605.7" y1="369" x2="817.1" y2="456.3"/>
	<line class="st0" x1="605.7" y1="369" x2="817.1" y2="543.7"/>
	<line class="st0" x1="605.7" y1="369" x2="817.1" y2="631"/>
	<line class="st0" x1="605.7" y1="456.3" x2="817.1" y2="369"/>
	<line class="st0" x1="605.7" y1="456.3" x2="817.1" y2="456.3"/>
	<line class="st0" x1="605.7" y1="456.3" x2="817.1" y2="543.7"/>
	<line class="st0" x1="605.7" y1="456.3" x2="817.1" y2="631"/>
	<line class="st0" x1="605.7" y1="543.7" x2="817.1" y2="369"/>
	<line class="st0" x1="605.7" y1="543.7" x2="817.1" y2="456.3"/>
	<line class="st0" x1="605.7" y1="543.7" x2="817.1" y2="543.7"/>
	<line class="st0" x1="605.7" y1="543.7" x2="817.1" y2="631"/>
	<line class="st0" x1="605.7" y1="631" x2="817.1" y2="369"/>
	<line class="st0" x1="605.7" y1="631" x2="817.1" y2="456.3"/>
	<line class="st0" x1="605.7" y1="631" x2="817.1" y2="543.7"/>
	<line class="st0" x1="605.7" y1="631" x2="817.1" y2="631"/>
	<line class="st0" x1="605.7" y1="718.3" x2="817.1" y2="369"/>
	<line class="st0" x1="605.7" y1="718.3" x2="817.1" y2="456.3"/>
	<line class="st0" x1="605.7" y1="718.3" x2="817.1" y2="543.7"/>
	<line class="st0" x1="605.7" y1="718.3" x2="817.1" y2="631"/>
</g>
<g id="input">
	<circle class="st1" cx="182.9" cy="369" r="29.9"/>
	<circle class="st1" cx="182.9" cy="456.3" r="29.9"/>
	<circle class="st1" cx="182.9" cy="543.7" r="29.9"/>
	<circle class="st1" cx="182.9" cy="631" r="29.9"/>
</g>
<g id="output">
	<circle class="st1" cx="817.1" cy="369" r="29.9"/>
	<circle class="st1" cx="817.1" cy="456.3" r="29.9"/>
	<circle class="st1" cx="817.1" cy="543.7" r="29.9"/>
	<circle class="st1" cx="817.1" cy="631" r="29.9"/>
</g>
<g id="h1">
	<circle class="st1" cx="394.3" cy="281.7" r="29.9"/>
	<circle class="st1" cx="394.3" cy="369" r="29.9"/>
	<circle class="st1" cx="394.3" cy="456.3" r="29.9"/>
	<circle class="st1" cx="394.3" cy="543.7" r="29.9"/>
	<circle class="st1" cx="394.3" cy="631" r="29.9"/>
	<circle class="st1" cx="394.3" cy="718.3" r="29.9"/>
</g>
<g id="h2">
	<circle class="st1" cx="605.7" cy="281.7" r="29.9"/>
	<circle class="st1" cx="605.7" cy="369" r="29.9"/>
	<circle class="st1" cx="605.7" cy="456.3" r="29.9"/>
	<circle class="st1" cx="605.7" cy="543.7" r="29.9"/>
	<circle class="st1" cx="605.7" cy="631" r="29.9"/>
	<circle class="st1" cx="605.7" cy="718.3" r="29.9"/>
</g>
</svg>
