<?xml version="1.0" encoding="utf-8"?>
<!-- Generator: Adobe Illustrator 22.0.1, SVG Export Plug-In . SVG Version: 6.00 Build 0)  -->
<svg version="1.1" id="레이어_1" xmlns="http://www.w3.org/2000/svg" xmlns:xlink="http://www.w3.org/1999/xlink" x="0px"
	 y="0px" viewBox="0 0 1000 1000" style="enable-background:new 0 0 1000 1000;" xml:space="preserve">
<style type="text/css">
	.st0{fill:#23C9FF;}
	.st1{fill:#7CC6FE;}
	.st2{fill:#CCD5FF;}
	.st3{fill:#E7BBE3;}
	.st4{opacity:0.74;}
	.st5{fill:none;stroke:#C884A6;stroke-width:2;stroke-miterlimit:10;}
	.st6{fill:#FFFFFF;stroke:#E5E1EE;stroke-width:4;}
</style>
<path class="st0" d="M225.1,794.4h-84.3c-7.7,0-14-6.3-14-14V219.6c0-7.7,6.3-14,14-14h84.3c7.7,0,14,6.3,14,14v560.9
	C239.1,788.1,232.8,794.4,225.1,794.4z"/>
<path class="st1" d="M436.5,794.4h-84.3c-7.7,0-14-6.3-14-14V219.6c0-7.7,6.3-14,14-14h84.3c7.7,0,14,6.3,14,14v560.9
	C450.5,788.1,444.2,794.4,436.5,794.4z"/>
<path class="st2" d="M647.9,794.4h-84.3c-7.7,0-14-6.3-14-14V219.6c0-7.7,6.3-14,14-14h84.3c7.7,0,14,6.3,14,14v560.9
	C661.9,788.1,655.6,794.4,647.9,794.4z"/>
<path class="st3" d="M859.3,794.4h-84.3c-7.7,0-14-6.3-14-14V219.6c0-7.7,6.3-14,14-14h84.3c7.7,0,14,6.3,14,14v560.9
	C873.3,788.1,867,794.4,859.3,794.4z"/>
<g class="st4">
	<line class="st5" x1="182.9" y1="369" x2="394.3" y2="281.7"/>
	<line class="st5" x1="182.9" y1="369" x2="394.3" y2="369"/>
	<line class="st5" x1="182.9" y1="369" x2="394.3" y2="456.3"/>
	<line class="st5" x1="182.9" y1="369" x2="394.3" y2="543.7"/>
	<line class="st5" x1="182.9" y1="369" x2="394.3" y2="631"/>
	<line class="st5" x1="182.9" y1="369" x2="394.3" y2="718.3"/>
	<line class="st5" x1="182.9" y1="456.3" x2="394.3" y2="281.7"/>
	<line class="st5" x1="182.9" y1="456.3" x2="394.3" y2="369"/>
	<line class="st5" x1="182.9" y1="456.3" x2="394.3" y2="456.3"/>
	<line class="st5" x1="182.9" y1="456.3" x2="394.3" y2="543.7"/>
	<line class="st5" x1="182.9" y1="456.3" x2="394.3" y2="631"/>
	<line class="st5" x1="182.9" y1="456.3" x2="394.3" y2="718.3"/>
	<line class="st5" x1="182.9" y1="543.7" x2="394.3" y2="281.7"/>
	<line class="st5" x1="182.9" y1="543.7" x2="394.3" y2="369"/>
	<line class="st5" x1="182.9" y1="543.7" x2="394.3" y2="456.3"/>
	<line class="st5" x1="182.9" y1="543.7" x2="394.3" y2="543.7"/>
	<line class="st5" x1="182.9" y1="543.7" x2="394.3" y2="631"/>
	<line class="st5" x1="182.9" y1="543.7" x2="394.3" y2="718.3"/>
	<line class="st5" x1="182.9" y1="631" x2="394.3" y2="281.7"/>
	<line class="st5" x1="182.9" y1="631" x2="394.3" y2="369"/>
	<line class="st5" x1="182.9" y1="631" x2="394.3" y2="456.3"/>
	<line class="st5" x1="182.9" y1="631" x2="394.3" y2="543.7"/>
	<line class="st5" x1="182.9" y1="631" x2="394.3" y2="631"/>
	<line class="st5" x1="182.9" y1="631" x2="394.3" y2="718.3"/>
</g>
<g class="st4">
	<line class="st5" x1="394.3" y1="281.7" x2="605.7" y2="281.7"/>
	<line class="st5" x1="394.3" y1="281.7" x2="605.7" y2="369"/>
	<line class="st5" x1="394.3" y1="281.7" x2="605.7" y2="456.3"/>
	<line class="st5" x1="394.3" y1="281.7" x2="605.7" y2="543.7"/>
	<line class="st5" x1="394.3" y1="281.7" x2="605.7" y2="631"/>
	<line class="st5" x1="394.3" y1="281.7" x2="605.7" y2="718.3"/>
	<line class="st5" x1="394.3" y1="369" x2="605.7" y2="281.7"/>
	<line class="st5" x1="394.3" y1="369" x2="605.7" y2="369"/>
	<line class="st5" x1="394.3" y1="369" x2="605.7" y2="456.3"/>
	<line class="st5" x1="394.3" y1="369" x2="605.7" y2="543.7"/>
	<line class="st5" x1="394.3" y1="369" x2="605.7" y2="631"/>
	<line class="st5" x1="394.3" y1="369" x2="605.7" y2="718.3"/>
	<line class="st5" x1="394.3" y1="456.3" x2="605.7" y2="281.7"/>
	<line class="st5" x1="394.3" y1="456.3" x2="605.7" y2="369"/>
	<line class="st5" x1="394.3" y1="456.3" x2="605.7" y2="456.3"/>
	<line class="st5" x1="394.3" y1="456.3" x2="605.7" y2="543.7"/>
	<line class="st5" x1="394.3" y1="456.3" x2="605.7" y2="631"/>
	<line class="st5" x1="394.3" y1="456.3" x2="605.7" y2="718.3"/>
	<line class="st5" x1="394.3" y1="543.7" x2="605.7" y2="281.7"/>
	<line class="st5" x1="394.3" y1="543.7" x2="605.7" y2="369"/>
	<line class="st5" x1="394.3" y1="543.7" x2="605.7" y2="456.3"/>
	<line class="st5" x1="394.3" y1="543.7" x2="605.7" y2="543.7"/>
	<line class="st5" x1="394.3" y1="543.7" x2="605.7" y2="631"/>
	<line class="st5" x1="394.3" y1="543.7" x2="605.7" y2="718.3"/>
	<line class="st5" x1="394.3" y1="631" x2="605.7" y2="281.7"/>
	<line class="st5" x1="394.3" y1="631" x2="605.7" y2="369"/>
	<line class="st5" x1="394.3" y1="631" x2="605.7" y2="456.3"/>
	<line class="st5" x1="394.3" y1="631" x2="605.7" y2="543.7"/>
	<line class="st5" x1="394.3" y1="631" x2="605.7" y2="631"/>
	<line class="st5" x1="394.3" y1="631" x2="605.7" y2="718.3"/>
	<line class="st5" x1="394.3" y1="718.3" x2="605.7" y2="281.7"/>
	<line class="st5" x1="394.3" y1="718.3" x2="605.7" y2="369"/>
	<line class="st5" x1="394.3" y1="718.3" x2="605.7" y2="456.3"/>
	<line class="st5" x1="394.3" y1="718.3" x2="605.7" y2="543.7"/>
	<line class="st5" x1="394.3" y1="718.3" x2="605.7" y2="631"/>
	<line class="st5" x1="394.3" y1="718.3" x2="605.7" y2="718.3"/>
</g>
<g class="st4">
	<line class="st5" x1="605.7" y1="281.7" x2="817.1" y2="369"/>
	<line class="st5" x1="605.7" y1="281.7" x2="817.1" y2="456.3"/>
	<line class="st5" x1="605.7" y1="281.7" x2="817.1" y2="543.7"/>
	<line class="st5" x1="605.7" y1="281.7" x2="817.1" y2="631"/>
	<line class="st5" x1="605.7" y1="369" x2="817.1" y2="369"/>
	<line class="st5" x1="605.7" y1="369" x2="817.1" y2="456.3"/>
	<line class="st5" x1="605.7" y1="369" x2="817.1" y2="543.7"/>
	<line class="st5" x1="605.7" y1="369" x2="817.1" y2="631"/>
	<line class="st5" x1="605.7" y1="456.3" x2="817.1" y2="369"/>
	<line class="st5" x1="605.7" y1="456.3" x2="817.1" y2="456.3"/>
	<line class="st5" x1="605.7" y1="456.3" x2="817.1" y2="543.7"/>
	<line class="st5" x1="605.7" y1="456.3" x2="817.1" y2="631"/>
	<line class="st5" x1="605.7" y1="543.7" x2="817.1" y2="369"/>
	<line class="st5" x1="605.7" y1="543.7" x2="817.1" y2="456.3"/>
	<line class="st5" x1="605.7" y1="543.7" x2="817.1" y2="543.7"/>
	<line class="st5" x1="605.7" y1="543.7" x2="817.1" y2="631"/>
	<line class="st5" x1="605.7" y1="631" x2="817.1" y2="369"/>
	<line class="st5" x1="605.7" y1="631" x2="817.1" y2="456.3"/>
	<line class="st5" x1="605.7" y1="631" x2="817.1" y2="543.7"/>
	<line class="st5" x1="605.7" y1="631" x2="817.1" y2="631"/>
	<line class="st5" x1="605.7" y1="718.3" x2="817.1" y2="369"/>
	<line class="st5" x1="605.7" y1="718.3" x2="817.1" y2="456.3"/>
	<line class="st5" x1="605.7" y1="718.3" x2="817.1" y2="543.7"/>
	<line class="st5" x1="605.7" y1="718.3" x2="817.1" y2="631"/>
</g>
<g id="input">
	<circle class="st6" cx="182.9" cy="369" r="29.9"/>
	<circle class="st6" cx="182.9" cy="456.3" r="29.9"/>
	<circle class="st6" cx="182.9" cy="543.7" r="29.9"/>
	<circle class="st6" cx="182.9" cy="631" r="29.9"/>
</g>
<g id="output">
	<circle class="st6" cx="817.1" cy="369" r="29.9"/>
	<circle class="st6" cx="817.1" cy="456.3" r="29.9"/>
	<circle class="st6" cx="817.1" cy="543.7" r="29.9"/>
	<circle class="st6" cx="817.1" cy="631" r="29.9"/>
</g>
<g id="h1">
	<circle class="st6" cx="394.3" cy="281.7" r="29.9"/>
	<circle class="st6" cx="394.3" cy="369" r="29.9"/>
	<circle class="st6" cx="394.3" cy="456.3" r="29.9"/>
	<circle class="st6" cx="394.3" cy="543.7" r="29.9"/>
	<circle class="st6" cx="394.3" cy="631" r="29.9"/>
	<circle class="st6" cx="394.3" cy="718.3" r="29.9"/>
</g>
<g id="h2">
	<circle class="st6" cx="605.7" cy="281.7" r="29.9"/>
	<circle class="st6" cx="605.7" cy="369" r="29.9"/>
	<circle class="st6" cx="605.7" cy="456.3" r="29.9"/>
	<circle class="st6" cx="605.7" cy="543.7" r="29.9"/>
	<circle class="st6" cx="605.7" cy="631" r="29.9"/>
	<circle class="st6" cx="605.7" cy="718.3" r="29.9"/>
</g>
</svg>
